<?xml version="1.0" encoding="utf-8"?>
<!-- Generator: Adobe Illustrator 17.0.2, SVG Export Plug-In . SVG Version: 6.00 Build 0)  -->
<!DOCTYPE svg PUBLIC "-//W3C//DTD SVG 1.1//EN" "http://www.w3.org/Graphics/SVG/1.1/DTD/svg11.dtd">
<svg version="1.1" id="Layer_1" xmlns:sketch="http://www.bohemiancoding.com/sketch/ns"
	 xmlns="http://www.w3.org/2000/svg" xmlns:xlink="http://www.w3.org/1999/xlink" x="0px" y="0px" width="70.738px"
	 height="77.994px" viewBox="19.179 14.88 70.738 77.994" enable-background="new 19.179 14.88 70.738 77.994" xml:space="preserve"
	>
<title>icon-implementation</title>
<description>Created with Sketch (http://www.bohemiancoding.com/sketch)</description>
<g id="Page-1" sketch:type="MSPage">
	<path id="Fill-12" sketch:type="MSShapeGroup" fill="#74C0C5" d="M37.913,24.187h3V15.59h-3V24.187z M20.537,36.339h8.597v-3
		h-8.597V36.339z M58.207,19.428l-2.121-2.121L45.805,27.588l2.121,2.122L58.207,19.428L58.207,19.428z M21.51,50.762l2.121,2.121
		l10.28-10.28l-2.121-2.121L21.51,50.762L21.51,50.762z M32.645,26.225L21.3,14.88l-2.121,2.121l11.345,11.345L32.645,26.225
		L32.645,26.225z M85.537,82.27l-7.386,6.331L55.315,60.769l-6.723,15.889L40.43,36.433l38.087,18.466L61.559,56.11L85.537,82.27
		L85.537,82.27z M89.917,57.092L36.285,31.089l11.293,55.662l8.565-20.242l21.633,26.365l12.068-10.345L67.965,58.66L89.917,57.092
		L89.917,57.092z"/>
</g>
</svg>
