<?xml version="1.0" encoding="utf-8"?>
<!-- Generator: Adobe Illustrator 16.2.1, SVG Export Plug-In . SVG Version: 6.00 Build 0)  -->
<!DOCTYPE svg PUBLIC "-//W3C//DTD SVG 1.1//EN" "http://www.w3.org/Graphics/SVG/1.1/DTD/svg11.dtd">
<svg version="1.1" id="Layer_1" xmlns="http://www.w3.org/2000/svg" xmlns:xlink="http://www.w3.org/1999/xlink" x="0px" y="0px"
	 width="36px" height="36px" viewBox="-5.583 -5.583 36 36" enable-background="new -5.583 -5.583 36 36" xml:space="preserve">
<circle fill="#FFFFFF" cx="12.417" cy="12.417" r="18"/>
<path fill="#A3DAE3" d="M12.417-5.583c-9.941,0-18,8.059-18,18c0,9.94,8.059,18.001,18,18.001c9.94,0,18.001-8.061,18.001-18.001
	C30.417,2.476,22.357-5.583,12.417-5.583z M12.417,3.141c2.928,0,5.301,2.374,5.301,5.301s-2.373,5.3-5.301,5.3
	c-2.927,0-5.3-2.373-5.3-5.3S9.489,3.141,12.417,3.141z M23.017,21.692H1.815v-1.324c0-2.928,2.374-5.301,5.301-5.301h10.601
	c2.927,0,5.3,2.373,5.3,5.301V21.692z"/>
</svg>
