<?xml version="1.0" encoding="utf-8"?>
<!-- Generator: Adobe Illustrator 17.0.2, SVG Export Plug-In . SVG Version: 6.00 Build 0)  -->
<!DOCTYPE svg PUBLIC "-//W3C//DTD SVG 1.1//EN" "http://www.w3.org/Graphics/SVG/1.1/DTD/svg11.dtd">
<svg version="1.1" id="Layer_1" xmlns:sketch="http://www.bohemiancoding.com/sketch/ns"
	 xmlns="http://www.w3.org/2000/svg" xmlns:xlink="http://www.w3.org/1999/xlink" x="0px" y="0px" width="68.442px"
	 height="71.201px" viewBox="13.538 8.706 68.442 71.201" enable-background="new 13.538 8.706 68.442 71.201" xml:space="preserve"
	>
<title>icon-solve-problems</title>
<description>Created with Sketch (http://www.bohemiancoding.com/sketch)</description>
<g id="Page-1" sketch:type="MSPage">
	<path id="Fill-6" sketch:type="MSShapeGroup" fill="#74C0C5" d="M72.936,76.907H19.052v-3.82H69.17V33.468H69.1l3.836-4.654V76.907
		L72.936,76.907z M16.538,20.456h44.67L41.913,43.865l-10.77-10.496L21.116,43.658L43.068,65.05L66.17,37.023v33.064H16.538V20.456
		L16.538,20.456z M71.3,12.928l6.456,5.321L42.827,60.627L25.358,43.603l5.84-5.992l10.956,10.678L71.3,12.928L71.3,12.928z
		 M81.98,17.842L70.893,8.706l-7.212,8.75H13.538v55.631h2.514v6.82h59.884V25.175L81.98,17.842L81.98,17.842z"/>
</g>
</svg>
