<?xml version="1.0" encoding="utf-8"?>
<!-- Generator: Adobe Illustrator 16.2.1, SVG Export Plug-In . SVG Version: 6.00 Build 0)  -->
<!DOCTYPE svg PUBLIC "-//W3C//DTD SVG 1.1//EN" "http://www.w3.org/Graphics/SVG/1.1/DTD/svg11.dtd">
<svg version="1.1" id="Layer_1" xmlns="http://www.w3.org/2000/svg" xmlns:xlink="http://www.w3.org/1999/xlink" x="0px" y="0px"
	 width="55px" height="55px" viewBox="-5.583 -5.583 55 55" enable-background="new -5.583 -5.583 55 55" xml:space="preserve">
<g>
	<polygon fill="#A3DAE3" points="19.697,26.058 19.697,17.651 10.589,21.679 	"/>
	<polygon fill="#A3DAE3" points="24.075,26.058 33.185,21.679 24.075,17.651 	"/>
	<path fill="#A3DAE3" d="M21.917-5.583c-15.188,0-27.5,12.312-27.5,27.5c0,15.188,12.312,27.5,27.5,27.5
		c15.188,0,27.5-12.312,27.5-27.5C49.417,6.729,37.104-5.583,21.917-5.583z M36.736,27.603c0,1.154-0.944,2.101-2.1,2.101H9.142
		c-1.156,0-2.102-0.946-2.102-2.101V16.108c0-1.156,0.946-2.102,2.102-2.102h25.495c1.155,0,2.1,0.945,2.1,2.102V27.603z"/>
</g>
</svg>
