<?xml  version="1.0" encoding="UTF-8"?>
<!DOCTYPE svg PUBLIC "-//W3C//DTD SVG 1.0//EN" "http://www.w3.org/TR/2001/REC-SVG-20010904/DTD/svg10.dtd" >
<svg xmlns="http://www.w3.org/2000/svg" >
<metadata>
<version>1.0</version>
<id><![CDATA[Adelle W01 Light]]></id>
<vendor>Monotype Imaging Inc.</vendor>
<credits>
<name>Fonts.com WebFonts</name>
<URL>http://webfonts.fonts.com</URL>
<role>Home of the Web fonts</role>
</credits>
<license>
<URL>http://webfonts.fonts.com/Legal</URL>
</license>
<copyright><![CDATA[Copyright (c) 2009 by TypeTogether. All rights reserved.]]></copyright>
<trademark><![CDATA[Adelle Lt is a trademark of TypeTogether.]]></trademark>
<licensee>
<name></name>
</licensee>
</metadata>
<defs >
<font horiz-adv-x="539" id="4a93e3f0-a4a0-48bb-a0ac-56b7d14dc1a2">
<font-face font-family="" panose-1="2 0 5 3 0 0 0 2 0 4" ascent="771" descent="-229" units-per-em="1000" alphabetic="0">
</font-face>
<missing-glyph horiz-adv-x="0" />

<glyph unicode="&#xA;" />
<glyph unicode="&#xD;" horiz-adv-x="0" />
<glyph unicode=" " horiz-adv-x="230" />
<glyph unicode="!" horiz-adv-x="256" d="M101 183L89 562V724H166V562L156 183H101ZM187 45Q187 -12 129 -12Q71 -12 71 45Q71 102 129 102Q187 102 187 45Z"  />
<glyph unicode="&quot;" horiz-adv-x="360" d="M223 447V706H295V447H223ZM65 447V706H137V447H65Z"  />
<glyph unicode="#" horiz-adv-x="607" d="M330 0L352 146H217L195 0H136L157 146H36L49 198H166L191 360H70L82 413H199L218 543H278L258 413H391L410 543H470L450 413H571L560 360H442L419 198H538L527 146H411L389 0H330ZM383 360H250L225 198H360L383 360Z"  />
<glyph unicode="$" horiz-adv-x="521" d="M456 168Q456 96 412 55T290 3V-80H235V0Q202 0 172 4T116 13T71 25T41 37V172H90L108 97Q111 85 114 81T126 73Q140 68 169 63T235 56V284Q203 293 173 304T118 334T79 381T64 454Q64 494 77 524T113 574T167 607T235 623V697H290V626Q344 624 387 613T450 593V446L399 451L382 533Q380 544 376 548T362 557Q349 562 330 564T290 568V336Q321 327 350 316T403 286T441 239T456 168ZM128 463Q128 439 136 421T159 391T193 369T235 353V565Q184 558 156 533T128 463ZM391 158Q391 182 383 199T362 229T330 251T290 267V59Q344 67 367 93T391 158Z"  />
<glyph unicode="%" horiz-adv-x="856" d="M206 257Q162 257 132 271T84 310T58 367T50 433Q50 474 60 508T92 567T143 606T214 620Q296 620 332 572T369 446Q369 404 359 370T328 310T277 271T206 257ZM205 -17L582 621H647L271 -17H205ZM209 309Q237 309 255 319T284 347T299 389T304 442Q304 467 300 489T286 529T258 557T212 567Q183 567 165 555T135 525T120 483T115 438Q115 412 119 389T133 348T162 320T209 309ZM643 -12Q599 -12 569 2T521 41T495 98T487 164Q487 205 497 239T529 298T580 337T651 351Q733 351 769 303T806 177Q806 135 796 101T765 41T714 2T643 -12ZM646 40Q674 40 692 50T721 78T736 120T741 173Q741 198 737 220T723 260T695 288T649 298Q620 298 602 286T572 256T557 214T552 169Q552 143 556 120T570 79T599 51T646 40Z"  />
<glyph unicode="&amp;" horiz-adv-x="711" d="M567 0L481 104Q434 41 379 15T254 -12Q207 -12 168 2T101 43T58 106T43 190Q43 271 90 325T229 400Q206 426 188 462T169 533Q169 560 178 585T207 629T257 660T329 672Q351 672 373 669T415 660T449 650T472 640V514L421 517L409 585Q407 593 404 597T393 605Q367 614 329 614Q281 614 258 594T235 541Q235 522 239 506T254 471T283 429T329 374L473 205L479 223Q493 266 501 302T512 387H627V343L581 334Q572 332 569 330T564 317Q558 277 546 235T518 159L592 70Q599 62 604 59T621 54L675 44V0H567ZM266 351Q231 346 203 334T153 303T121 256T109 191Q109 165 117 139T144 92T191 58T260 45Q313 45 359 71T440 150L266 351Z"  />
<glyph unicode="&apos;" horiz-adv-x="202" d="M65 447V706H137V447H65Z"  />
<glyph unicode="(" horiz-adv-x="278" d="M201 -152Q174 -110 149 -63T103 38T71 152T59 280Q59 347 72 409T106 528T155 633T210 723L261 691Q229 638 204 588T162 489T136 388T127 281Q127 215 137 160T166 56T207 -36T254 -123L201 -152Z"  />
<glyph unicode=")" horiz-adv-x="278" d="M77 -152L24 -123Q48 -80 71 -36T112 56T140 159T151 281Q151 337 142 388T116 488T74 588T17 691L68 723Q96 682 123 633T171 528T206 410T219 280Q219 212 207 152T175 38T130 -63T77 -152Z"  />
<glyph unicode="*" horiz-adv-x="469" d="M203 692V755H266V692L251 588H218L203 692ZM235 536L179 447L138 398L90 439L131 487L209 558L235 536ZM105 578L45 600L67 659L127 638L218 588L209 558L105 578ZM338 487L379 439L331 398L290 447L235 536L261 557L338 487ZM251 588L343 638L402 659L424 600L364 578L261 557L251 588Z"  />
<glyph unicode="+" horiz-adv-x="570" d="M250 131V288H98V354H250V508H319V354H471V288H319V131H250Z"  />
<glyph unicode="&#x2c;" horiz-adv-x="175" d="M40 -102L71 2Q72 9 66 12L34 26L56 99Q100 97 126 87T152 40Q152 28 148 17T138 -6L79 -117L40 -102Z"  />
<glyph unicode="-" horiz-adv-x="311" d="M20 255V329H291V255H20Z"  />
<glyph unicode="." horiz-adv-x="206" d="M166 45Q166 -12 108 -12Q50 -12 50 45Q50 102 108 102Q166 102 166 45Z"  />
<glyph unicode="/" horiz-adv-x="353" d="M6 -92L287 755H347L67 -92H6Z"  />
<glyph unicode="0" horiz-adv-x="563" d="M279 -12Q205 -12 160 13T89 79T54 173T45 282Q45 339 56 393T95 489T170 556T289 581Q359 581 404 558T474 495T508 404T518 296Q518 238 508 183T472 84T399 15T279 -12ZM282 44Q331 44 363 62T414 114T441 191T449 289Q449 340 442 383T417 457T368 505T287 522Q238 522 205 505T152 455T123 378T114 276Q114 228 122 186T149 112T200 62T282 44Z"  />
<glyph unicode="1" horiz-adv-x="351" d="M30 0V45L137 51Q148 52 150 56T153 71V482Q153 494 150 497T138 503L40 520L45 566H220V71Q220 59 222 56T236 51L326 44V0H30Z"  />
<glyph unicode="2" horiz-adv-x="461" d="M34 0V50L169 182Q205 217 236 246T291 303T328 358T342 416Q342 468 313 496T214 524Q182 524 159 520T121 503T98 470T90 414L26 422Q26 473 42 504T86 553T147 575T215 581Q320 581 366 538T412 424Q412 383 396 348T354 282T297 222T235 164L122 56H356Q364 56 367 57T372 67L388 154H438V0H34Z"  />
<glyph unicode="3" horiz-adv-x="476" d="M301 261Q432 236 432 106Q432 22 379 -30T220 -83Q151 -83 98 -60T14 0L58 47Q90 14 128 -4T223 -22Q249 -22 274 -16T318 4T350 42T362 104Q362 167 322 198T210 229Q193 229 177 228T141 223V280L203 286Q275 293 310 328T346 415Q346 463 319 493T225 524Q195 524 172 520T132 503T108 470T99 414L35 422Q35 472 52 503T98 551T160 575T229 581Q280 581 315 569T373 535T406 486T416 425Q416 367 387 326T301 265V261Z"  />
<glyph unicode="4" horiz-adv-x="491" d="M317 -67V84H25V137L265 570L320 538L104 143H318V361H383V143H476V84H382V-67H317Z"  />
<glyph unicode="5" horiz-adv-x="501" d="M143 508L129 294Q155 311 189 322T262 333Q350 333 403 281T456 131Q456 86 442 47T399 -21T330 -66T237 -83Q168 -83 112 -61T20 -1L65 49Q97 14 139 -3T238 -21Q264 -21 290 -13T338 13T372 59T386 128Q386 170 374 198T342 243T298 267T251 274Q203 274 173 259T117 226L65 250L85 566H352Q360 566 363 567T368 577L382 631L425 634V508H143Z"  />
<glyph unicode="6" horiz-adv-x="517" d="M395 498Q395 552 370 570T294 588Q238 588 204 561T151 494T126 409T120 327Q148 353 191 373T293 394Q339 394 372 379T428 339T460 278T470 204Q470 156 457 117T419 49T355 4T265 -12Q198 -12 157 16T92 89T60 194T52 317Q52 365 61 422T98 529T174 612T301 645Q328 645 356 640T407 619T444 577T459 506L395 498ZM122 263Q123 237 127 199T147 127T190 68T268 43Q333 43 367 83T401 198Q401 267 374 301T284 336Q259 336 235 329T189 311T150 287T122 263Z"  />
<glyph unicode="7" horiz-adv-x="487" d="M165 -67Q174 35 198 122T256 282T326 411T397 508H131Q123 508 120 507T115 497L96 406L50 403V566H477V516Q434 474 392 406T316 259T260 94T236 -67H165Z"  />
<glyph unicode="8" horiz-adv-x="496" d="M332 331Q356 317 378 302T417 266T444 220T454 161Q454 119 438 87T394 32T327 -1T242 -12Q199 -12 163 -2T99 29T57 80T41 151Q41 183 51 210T79 260T119 304T167 343Q126 366 97 400T68 492Q68 529 83 558T123 606T182 635T253 645Q298 645 332 634T389 603T423 557T435 501Q435 475 426 451T402 405T369 365T332 331ZM224 315Q170 277 140 239T110 156Q110 102 149 74T251 45Q311 45 348 77T385 158Q385 191 371 214T335 255T283 287T224 315ZM277 358Q313 388 339 422T366 498Q366 524 356 541T330 569T293 584T249 588Q202 588 169 565T136 498Q136 471 148 451T179 414T224 385T277 358Z"  />
<glyph unicode="9" horiz-adv-x="546" d="M110 31Q142 2 178 -10T255 -23Q311 -23 343 4T390 70T410 153T414 230Q386 204 343 182T240 160Q193 160 160 175T104 218T72 283T62 365Q62 413 75 452T114 520T180 565T271 581Q340 581 381 554T445 480T475 375T482 252Q482 218 480 180T469 104T445 33T405 -26T342 -67T254 -83Q205 -83 157 -69T73 -22L110 31ZM412 294Q410 326 406 366T388 442T345 502T265 526Q199 526 165 486T131 371Q131 299 158 259T249 218Q276 218 301 225T347 244T384 269T412 294Z"  />
<glyph unicode=":" horiz-adv-x="206" d="M166 45Q166 -12 108 -12Q50 -12 50 45Q50 102 108 102Q166 102 166 45ZM166 439Q166 382 108 382Q50 382 50 439Q50 496 108 496Q166 496 166 439Z"  />
<glyph unicode=";" horiz-adv-x="175" d="M40 -102Q43 -93 49 -77T60 -43T69 -11T71 8Q70 10 66 12L34 26L56 99Q100 97 126 87T152 40Q152 26 145 7T126 -34T102 -76T79 -117L40 -102ZM157 439Q157 382 99 382Q41 382 41 439Q41 496 99 496Q157 496 157 439Z"  />
<glyph unicode="&lt;" horiz-adv-x="570" d="M89 246V330L454 489L478 425L153 289L482 159L462 98L89 246Z"  />
<glyph unicode="=" horiz-adv-x="570" d="M101 171V240H470V171H101ZM101 323V392H470V323H101Z"  />
<glyph unicode="&gt;" horiz-adv-x="570" d="M108 98L88 159L417 289L92 425L116 489L481 330V246L108 98Z"  />
<glyph unicode="?" horiz-adv-x="457" d="M141 182V357Q183 361 221 370T289 399T335 450T352 530Q352 571 341 597T310 639T263 660T205 666Q167 666 144 661T111 649Q107 646 105 642T101 626L91 572L40 569V692Q47 695 63 700T101 711T151 720T208 724Q256 724 295 715T362 684T406 626T422 536Q422 482 406 443T360 377T292 334T208 309V182H141ZM233 45Q233 -12 175 -12Q117 -12 117 45Q117 102 175 102Q233 102 233 45Z"  />
<glyph unicode="@" horiz-adv-x="824" d="M606 -139Q584 -150 534 -162T409 -174Q330 -174 264 -152T151 -86T77 24T50 181Q50 266 78 337T158 460T280 539T438 568Q512 568 574 547T680 486T749 387T774 252Q774 179 759 129T718 48T657 2T582 -12Q529 -12 507 10T481 64Q450 35 416 12T341 -12Q288 -12 262 23T236 125Q236 180 250 229T293 316T360 375T450 397Q485 397 520 388T581 365L552 189Q547 159 544 134T540 92Q540 64 553 52T595 40Q617 40 637 52T674 88T699 149T709 236Q709 372 640 442T432 512Q360 512 302 487T203 418T139 314T117 183Q117 104 138 48T199 -45T294 -99T417 -117Q462 -117 506 -109T589 -86L606 -139ZM510 325Q496 334 478 338T441 343Q412 343 387 327T343 282T314 216T303 135Q303 117 304 102T311 75T326 57T352 51Q367 51 384 58T419 77T452 102T479 130L510 325Z"  />
<glyph unicode="A" horiz-adv-x="695" d="M466 0V44L549 53L488 233H196L136 53L217 44V0H10V44L53 55Q62 57 68 61T77 74L298 724H390L616 72Q619 63 624 60T639 55L685 44V0H466ZM343 669L216 292H469L343 669Z"  />
<glyph unicode="B" horiz-adv-x="668" d="M70 0V44L133 51Q144 53 146 56T149 71V652Q149 663 147 667T133 672L70 679V724H353Q417 724 459 711T525 673T560 617T570 547Q570 511 560 484T532 435T493 400T448 379V376Q534 366 576 318T618 195Q618 139 599 102T544 42T460 10T352 0H70ZM347 59Q389 59 426 63T490 82T532 124T548 197Q548 236 534 263T496 307T440 333T369 341H215V59H347ZM322 399Q353 399 384 405T441 426T483 469T500 540Q500 612 461 639T337 666H215V399H322Z"  />
<glyph unicode="C" horiz-adv-x="684" d="M629 40Q590 13 526 1T393 -12Q302 -12 238 16T134 94T74 215T55 368Q55 447 77 514T143 631T253 709T409 737Q477 737 534 723T627 684V538L576 541L559 635Q558 641 556 645T546 653Q517 664 481 671T404 678Q341 678 290 658T202 598T145 500T125 367Q125 210 198 129T397 47Q435 47 478 52T553 71Q563 75 566 88L582 177H629V40Z"  />
<glyph unicode="D" horiz-adv-x="773" d="M70 0V44L133 51Q144 53 146 56T149 71V652Q149 663 147 667T133 672L70 679V724H359Q453 724 521 700T632 630T697 519T718 373Q718 290 696 221T627 103T510 27T342 0H70ZM347 59Q496 59 572 137T648 358Q648 448 628 507T569 601T477 651T353 666H216V59H347Z"  />
<glyph unicode="E" horiz-adv-x="637" d="M70 0V44L133 51Q144 53 146 56T149 71V652Q149 663 147 667T133 672L70 679V724H560V574L509 577L495 655Q492 668 478 668H216V394H496V338H216V56H500Q508 56 511 57T516 67L532 154H582V0H70Z"  />
<glyph unicode="F" horiz-adv-x="601" d="M70 0V44L133 51Q144 53 146 56T149 71V652Q149 663 147 667T133 672L70 679V724H556V574L505 577L491 655Q488 668 474 668H216V397H492V341H216V72Q216 60 218 57T232 52L379 44V0H70Z"  />
<glyph unicode="G" horiz-adv-x="747" d="M675 283Q659 282 659 269V26Q638 16 610 9T552 -3T489 -10T427 -12Q326 -12 256 16T141 96T76 216T55 368Q55 447 77 514T143 631T253 709T409 737Q477 737 535 723T630 684V538L579 541L562 635Q561 641 559 645T549 653Q520 664 482 671T404 678Q341 678 290 658T202 598T145 500T125 367Q125 210 206 129T431 47Q449 47 469 48T510 52T548 58T580 65Q585 67 589 70T593 82V277H447L457 332H717V287L675 283Z"  />
<glyph unicode="H" horiz-adv-x="804" d="M509 0V44L572 51Q583 53 585 56T588 71V346H216V72Q216 60 218 57T232 52L299 44V0H70V44L133 51Q144 53 146 56T149 71V653Q149 664 147 668T133 673L70 680V724H299V680L232 672Q221 670 219 667T216 653V402H588V653Q588 664 586 668T572 673L509 680V724H738V680L671 672Q660 670 658 667T655 653V72Q655 60 657 57T671 52L738 44V0H509Z"  />
<glyph unicode="I" horiz-adv-x="387" d="M71 0V44L144 51Q155 53 157 56T160 71V653Q160 664 158 668T144 673L71 680V724H320V680L243 672Q232 670 230 667T227 653V72Q227 60 229 57T243 52L320 44V0H71Z"  />
<glyph unicode="J" horiz-adv-x="499" d="M304 654Q304 665 301 668T288 673L205 680V724H454V680L387 672Q376 670 374 668T371 654V141Q371 63 335 26T215 -12Q158 -12 116 0T60 21V144L111 141L121 73Q122 68 124 65T133 59Q141 55 161 50T213 44Q268 44 286 69T304 149V654Z"  />
<glyph unicode="K" horiz-adv-x="728" d="M459 0V45Q479 47 500 49T541 53L300 361L216 271V72Q216 60 218 57T232 52L299 44V0H70V44L133 51Q144 53 146 56T149 71V653Q149 664 147 668T133 673L70 680V724H299V680L232 672Q221 670 219 667T216 653V353L511 671L449 679V724H659V680L605 670Q591 668 587 665T575 654L345 409L609 70Q616 61 620 59T638 54L698 44V0H459Z"  />
<glyph unicode="L" horiz-adv-x="617" d="M70 0V44L133 51Q144 53 146 56T149 71V652Q149 663 147 667T133 672L70 679V724H315V679L232 671Q221 670 219 667T216 652V56H500Q508 56 511 57T516 67L532 154H582V0H70Z"  />
<glyph unicode="M" horiz-adv-x="944" d="M629 0V44L712 51Q723 53 725 56T728 71V608L503 181H441L216 614V72Q216 60 218 57T232 52L319 44V0H70V44L133 51Q144 53 146 56T149 71V652Q149 663 147 667T133 672L70 679V724H234L474 247L720 724H878V680L811 672Q800 670 798 667T795 653V71Q795 61 798 58T811 52L878 44V0H629Z"  />
<glyph unicode="N" horiz-adv-x="828" d="M600 0L216 638V72Q216 60 218 57T232 52L299 44V0H70V44L133 51Q144 53 146 56T149 71V653Q149 664 147 667T133 673L70 680V725H246L618 93V653Q618 664 616 667T602 673L539 680V724H767V680L700 672Q689 670 687 667T684 653V0H600Z"  />
<glyph unicode="O" horiz-adv-x="783" d="M388 -12Q302 -12 240 16T137 94T77 213T57 363Q57 444 79 512T145 631T253 709T402 737Q486 737 547 709T648 633T708 519T728 378Q728 289 707 217T643 94T536 16T388 -12ZM392 47Q452 47 501 67T585 127T639 227T659 368Q659 443 641 501T589 598T507 657T400 678Q340 678 290 658T204 597T147 498T127 363Q127 286 146 227T199 128T283 68T392 47Z"  />
<glyph unicode="P" horiz-adv-x="658" d="M70 0V44L133 51Q144 53 146 56T149 71V652Q149 663 147 667T133 672L70 679V724H367Q436 724 482 707T557 661T596 593T608 511Q608 447 589 402T535 329T448 289T334 276H215V72Q215 60 217 57T231 52L374 44V0H70ZM332 335Q375 335 412 341T478 366T522 419T538 509Q538 591 493 628T347 666H215V335H332Z"  />
<glyph unicode="Q" horiz-adv-x="780" d="M571 -161Q559 -168 536 -173T487 -178Q416 -178 388 -148T359 -58Q359 -35 362 -11Q283 -7 225 22T130 102T74 220T56 368Q56 447 78 514T144 631T252 709T401 737Q485 737 546 709T646 633T705 519T725 378Q725 295 706 227T650 108T557 28T428 -10Q425 -31 425 -56Q425 -87 439 -105T490 -123Q510 -123 527 -119T555 -110L571 -161ZM391 47Q451 47 499 67T583 127T637 227T656 368Q656 519 587 598T399 678Q339 678 289 658T203 598T146 500T126 367Q126 289 145 229T198 129T282 68T391 47Z"  />
<glyph unicode="R" horiz-adv-x="689" d="M426 0V45L508 53Q499 75 487 103T463 161T438 220T416 273Q407 294 392 304T350 314H215V72Q215 60 217 57T231 52L299 44V0H70V44L133 51Q144 53 146 56T149 71V652Q149 663 147 667T133 672L70 679V724H362Q429 724 472 707T541 662T575 599T585 530Q585 448 546 401T444 334Q470 322 482 294T511 224L573 73Q580 58 597 55L664 44V0H426ZM325 373Q364 373 399 380T459 405T500 453T515 529Q515 571 501 597T461 639T395 660T304 666H215V373H325Z"  />
<glyph unicode="S" horiz-adv-x="581" d="M449 549L432 635Q430 642 429 646T426 654Q421 661 392 668T318 676Q231 676 190 642T148 548Q148 510 164 486T206 446T266 418T334 396T402 371T462 334T505 277T521 192Q521 135 500 96T444 33T362 -1T263 -12Q228 -12 196 -8T138 1T91 13T60 25V176H109L128 91Q130 81 132 77T145 69Q157 64 189 56T272 48Q356 48 403 81T450 187Q450 227 434 253T392 296T332 324T264 345T196 369T136 404T93 459T77 541Q77 593 96 630T149 691T226 726T322 737Q385 737 431 725T500 704V544L449 549Z"  />
<glyph unicode="T" horiz-adv-x="643" d="M169 0V45L272 52Q283 53 285 57T288 72V668H113Q105 668 102 667T97 657L81 570H31V724H613V570H563L547 657Q545 665 542 666T531 668H355V72Q355 61 357 58T371 53L481 45V0H169Z"  />
<glyph unicode="U" horiz-adv-x="789" d="M582 653Q582 664 580 668T566 673L503 680V724H732V680L665 672Q654 670 652 667T649 653V235Q649 110 583 49T389 -12Q254 -12 197 52T140 236V653Q140 664 138 668T124 673L61 680V724H290V680L223 672Q212 670 210 667T207 653V240Q207 186 219 150T256 90T315 57T395 47Q441 47 476 56T534 88T570 147T582 238V653Z"  />
<glyph unicode="V" horiz-adv-x="676" d="M297 0L74 652Q71 661 65 664T50 669L5 680L15 724H226V680L143 671L344 57L540 671L459 680L469 724H666V680L624 669Q615 667 609 663T599 650L389 0H297Z"  />
<glyph unicode="W" horiz-adv-x="973" d="M634 0L490 493L341 0H263L92 651Q90 661 86 664T72 670L10 680L20 724H249V680L158 670L306 80L453 573H530L676 70L827 670L734 680L744 724H963V680L909 671Q898 669 895 666T888 651L719 0H634Z"  />
<glyph unicode="X" horiz-adv-x="669" d="M434 0V44L508 53L329 323L154 53L226 44V0H20V42L70 53Q79 55 84 59T95 72L288 368L105 652Q100 660 95 663T81 669L36 680L46 724H242V680L168 671L329 418L495 671L423 680L433 724H620V680L578 669Q569 667 564 663T553 650L371 373L574 72Q579 64 584 61T598 55L649 44V0H434Z"  />
<glyph unicode="Y" horiz-adv-x="596" d="M161 0V44L254 51Q265 52 267 56T270 71V284L69 652Q62 665 45 669L0 680L10 724H208V680L134 671L305 346L472 671L400 680L410 724H596V680L554 669Q546 667 540 663T529 650L337 287V72Q337 60 339 57T353 52L450 44V0H161Z"  />
<glyph unicode="Z" horiz-adv-x="633" d="M50 0V46L483 668H151Q143 668 140 667T135 657L116 564L64 561V724H566V676L135 56H486Q494 56 497 57T502 67L521 174H573V0H50Z"  />
<glyph unicode="[" horiz-adv-x="243" d="M68 -143V724H213V680L146 672Q135 670 133 667T130 653V-70Q130 -82 132 -85T146 -90L213 -98V-143H68Z"  />
<glyph unicode="\" horiz-adv-x="353" d="M286 -92L6 755H66L347 -92H286Z"  />
<glyph unicode="]" horiz-adv-x="243" d="M175 724V-143H30V-98L97 -90Q108 -88 110 -85T113 -71V652Q113 664 111 667T97 672L30 680V724H175Z"  />
<glyph unicode="^" horiz-adv-x="526" d="M428 299L260 602L95 299H30L227 664H296L496 299H428Z"  />
<glyph unicode="_" horiz-adv-x="500" d="M0 -181V-129H500V-181H0Z"  />
<glyph unicode="`" horiz-adv-x="500" d="M321 569L146 708L198 761L353 601L321 569Z"  />
<glyph unicode="a" horiz-adv-x="534" d="M387 0L378 67L375 68Q335 31 291 10T190 -12Q143 -12 116 2T74 36T55 80T51 121Q51 196 96 231T231 274L374 287V343Q374 374 370 397T354 435T319 457T260 464Q235 464 214 463T176 454T151 430T141 383L77 391Q77 435 95 461T141 500T201 517T261 521Q312 521 346 513T402 484T432 430T441 345V71Q441 59 443 56T457 51L509 44V0H387ZM374 234L243 222Q207 219 184 212T146 193T127 166T121 129Q121 84 142 64T203 44Q229 44 253 52T300 73T341 103T374 138V234Z"  />
<glyph unicode="b" horiz-adv-x="588" d="M93 0Q97 26 100 66T104 142V673Q104 690 91 694L30 713L38 755H171V460Q207 482 251 501T349 521Q434 521 485 463T536 276Q536 199 521 144T479 55T412 4T326 -12Q281 -12 242 2T167 48L165 47L160 0H93ZM171 120Q199 91 238 69T320 46Q403 46 436 105T470 268Q470 324 460 361T431 421T389 453T338 462Q313 462 289 456T244 441T205 420T171 398V120Z"  />
<glyph unicode="c" horiz-adv-x="476" d="M446 27Q420 10 375 -1T282 -12Q219 -12 175 7T101 61T59 144T45 250Q45 322 64 373T117 457T199 505T302 521Q356 521 393 511T444 494V371L393 374L381 440Q380 445 379 448T370 453Q359 457 338 460T294 463Q256 463 224 452T167 415T129 350T115 253Q115 145 163 97T291 48Q329 48 362 57T420 83L446 27Z"  />
<glyph unicode="d" horiz-adv-x="590" d="M430 0L422 68L419 69Q383 35 341 12T239 -12Q197 -12 163 2T104 47T66 126T52 243Q52 316 67 368T109 455T175 505T260 521Q306 521 347 507T417 472V674Q417 690 404 694L343 713L351 755H484V71Q484 59 486 56T500 51L552 44V0H430ZM417 399Q392 423 351 443T261 463Q223 463 196 448T151 404T126 335T118 245Q118 186 128 148T156 88T197 56T248 47Q300 47 341 73T417 141V399Z"  />
<glyph unicode="e" horiz-adv-x="506" d="M450 30Q416 10 374 -1T278 -12Q212 -12 167 9T95 66T57 152T45 258Q45 325 62 374T109 456T179 505T265 521Q309 521 346 508T409 467T451 394T466 285Q466 274 466 264T464 242H115Q116 199 125 164T155 103T206 63T283 49Q306 49 324 51T359 57T391 69T425 86L450 30ZM397 296Q396 342 386 374T357 425T316 453T266 462Q237 462 212 454T166 426T133 374T117 296H397Z"  />
<glyph unicode="f" horiz-adv-x="394" d="M45 0V45L112 51Q123 52 125 56T128 71V445Q128 450 127 452T120 455H46V511H128V596Q128 679 168 722T299 766Q328 766 353 762T397 745T426 712T437 656L374 647Q374 687 354 698T296 709Q265 709 246 701T215 678T199 642T195 593V521Q195 516 196 514T203 511H370V455H195V72Q195 60 197 57T211 52L326 44V0H45Z"  />
<glyph unicode="g" horiz-adv-x="534" d="M433 449Q450 428 460 404T470 343Q470 298 455 263T411 204T346 168T264 156Q211 156 177 170L130 76L307 63Q361 59 400 53T464 33T502 -5T515 -69Q515 -141 454 -183T261 -225Q198 -225 155 -217T85 -192T47 -154T35 -102Q35 -64 53 -36T103 22Q79 27 68 37T56 67Q56 79 61 90T76 116L125 193Q94 212 75 247T55 333Q55 375 70 410T112 469T179 507T266 521Q292 521 314 519T352 511H526V456L433 449ZM404 339Q404 400 369 433T267 466Q203 466 163 435T123 337Q123 311 130 289T155 250T198 223T264 213Q329 213 366 248T404 339ZM168 11Q158 2 147 -9T127 -33T112 -60T106 -90Q106 -134 152 -149T281 -164Q296 -164 309 -163T336 -160Q387 -152 415 -130T443 -70Q443 -33 415 -18T332 1L168 11Z"  />
<glyph unicode="h" horiz-adv-x="632" d="M391 0V45L443 51Q454 53 456 56T459 70V314Q459 389 435 424T357 460Q330 460 304 452T254 433T213 409T183 385V71Q183 59 185 56T199 51L259 44V0H48V45L100 51Q111 53 113 56T116 71V673Q116 690 103 694L42 713L50 755H183V451Q223 480 266 500T369 521Q447 521 486 477T526 331V71Q526 59 528 56T542 51L602 44V0H391Z"  />
<glyph unicode="i" horiz-adv-x="289" d="M190 688Q190 662 176 649T136 635Q110 635 96 648T82 688Q82 714 96 727T136 741Q162 741 176 728T190 688ZM28 0V45L100 51Q111 53 113 56T116 71V429Q116 446 103 450L45 469L53 511H183V71Q183 59 185 56T199 51L269 44V0H28Z"  />
<glyph unicode="j" horiz-adv-x="275" d="M114 429Q114 440 112 444T102 450L34 469L42 511H181V-70Q181 -147 150 -185T49 -223Q8 -223 -26 -212T-80 -184L-47 -135Q-33 -146 -9 -156T44 -166Q88 -166 101 -137T114 -55V429ZM190 688Q190 662 176 649T136 635Q110 635 96 648T82 688Q82 714 96 727T136 741Q162 741 176 728T190 688Z"  />
<glyph unicode="k" horiz-adv-x="579" d="M359 0V45L421 53L279 275L183 167V71Q183 59 185 56T199 51L264 44V0H33V45L100 51Q111 53 113 56T116 71V673Q116 690 103 694L42 713L50 755H183V252L407 511H507V467L448 454Q439 452 435 450T423 439L324 327L486 70Q492 61 496 59T515 54L569 44V0H359Z"  />
<glyph unicode="l" horiz-adv-x="289" d="M33 0V45L100 51Q111 52 113 56T116 71V673Q116 690 103 694L42 713L50 755H183V71Q183 59 185 56T199 51L264 44V0H33Z"  />
<glyph unicode="m" horiz-adv-x="921" d="M680 0V45L732 51Q743 53 745 56T748 70V310Q748 347 744 375T730 422T700 450T652 460Q607 460 567 441T499 401Q501 387 502 371T503 336V71Q503 59 505 56T519 51L571 44V0H371V45L420 51Q431 53 433 56T436 70V315Q436 352 433 379T421 425T395 451T350 460Q322 460 297 452T250 433T211 408T183 385V71Q183 59 185 56T199 51L259 44V0H48V45L100 51Q111 53 113 56T116 71V429Q116 446 103 450L45 469L53 511H166L174 449L177 448Q192 460 211 473T254 496T305 514T365 521Q414 521 442 505T484 456Q520 482 565 501T667 521Q711 521 739 508T785 470T808 410T815 331V71Q815 59 817 56T831 51L891 44V0H680Z"  />
<glyph unicode="n" horiz-adv-x="632" d="M391 0V45L443 51Q454 53 456 56T459 70V310Q459 388 436 424T357 460Q330 460 304 452T254 433T213 409T183 385V71Q183 59 185 56T199 51L259 44V0H48V45L100 51Q111 53 113 56T116 71V429Q116 446 103 450L45 469L53 511H166L174 449L177 448Q215 476 263 498T371 521Q415 521 444 508T492 470T518 410T526 331V71Q526 59 528 56T542 51L602 44V0H391Z"  />
<glyph unicode="o" horiz-adv-x="563" d="M279 -12Q217 -12 173 8T100 63T58 148T45 257Q45 315 60 364T105 447T181 501T289 521Q351 521 394 502T465 449T505 367T518 264Q518 201 504 150T461 63T386 8T279 -12ZM282 43Q449 43 449 257Q449 360 410 411T287 462Q203 462 159 411T114 256Q114 153 156 98T282 43Z"  />
<glyph unicode="p" horiz-adv-x="600" d="M58 -212V-167L100 -161Q111 -159 113 -156T116 -141V429Q116 446 103 450L45 469L53 511H167L175 451L177 450Q212 476 259 498T361 521Q446 521 497 463T548 276Q548 207 536 157T502 72T448 17T378 -9Q358 -12 338 -12Q293 -12 255 2T185 47L183 46V-141Q183 -153 185 -156T199 -161L289 -168V-212H58ZM183 120Q211 91 250 69T332 46Q415 46 448 105T482 268Q482 324 472 361T443 421T401 452T350 461Q325 461 300 454T253 435T213 412T183 389V120Z"  />
<glyph unicode="q" horiz-adv-x="577" d="M331 -212V-168L401 -161Q412 -160 414 -157T417 -141V66L416 67Q380 32 340 10T241 -12Q198 -12 163 2T104 46T66 125T52 242Q52 315 67 367T109 454T174 504T257 521Q306 521 346 506T417 468L427 511H494Q489 474 487 444T484 381V-141Q484 -152 486 -155T500 -161L552 -167V-212H331ZM417 399Q405 411 388 422T351 443T307 457T261 463Q223 463 196 448T151 404T126 335T118 246Q118 187 128 149T156 88T197 56T248 47Q300 47 341 73T417 141V399Z"  />
<glyph unicode="r" horiz-adv-x="417" d="M48 0V45L100 51Q111 53 113 56T116 71V429Q116 446 103 450L45 469L53 511H167L176 447Q188 459 204 472T239 496T282 514T331 521Q348 521 365 519T397 512V373L346 376L333 452Q332 457 331 459T321 461Q301 461 281 453T242 434T208 410T183 387V71Q183 59 185 56T199 51L289 44V0H48Z"  />
<glyph unicode="s" horiz-adv-x="449" d="M342 374L330 440Q329 445 328 448T319 453Q308 457 286 461T236 465Q173 465 146 440T119 380Q119 356 129 341T157 316T198 298T246 285Q275 277 304 268T356 243T393 202T408 137Q408 95 392 66T348 20T286 -4T215 -12Q186 -12 158 -9T105 0T64 11T40 21V144L91 141L103 75Q104 70 105 67T114 62Q125 58 152 51T222 44Q277 44 310 65T343 131Q343 155 333 171T306 197T267 215T221 228Q191 235 162 243T109 267T70 307T55 372Q55 413 71 441T113 487T174 513T246 521Q298 521 338 511T393 494V371L342 374Z"  />
<glyph unicode="t" horiz-adv-x="400" d="M370 16Q341 5 309 -3T241 -12Q175 -12 144 20T112 112V445Q112 450 111 452T104 455H30V500Q58 504 76 511T105 534T122 573T134 635H179V521Q179 516 180 514T187 511H336V455H179V137Q179 89 195 69T255 48Q280 48 304 54T351 68L370 16Z"  />
<glyph unicode="u" horiz-adv-x="629" d="M468 0L459 73L457 74Q440 59 420 44T375 16T322 -4T260 -12Q218 -12 190 0T146 37T123 95T116 172V430Q116 442 114 447T100 454L47 469L54 511H183V190Q183 116 201 81T273 45Q302 45 328 54T378 78T421 111T456 148V431Q456 443 454 447T440 454L386 469L393 511H523V72Q523 52 536 51L591 44V0H468Z"  />
<glyph unicode="v" horiz-adv-x="561" d="M247 0L74 441Q71 450 67 453T53 458L10 467L20 511H209V467L138 459L287 62L436 459L368 467L378 511H551V467L519 461Q508 459 503 456T494 444L323 0H247Z"  />
<glyph unicode="w" horiz-adv-x="825" d="M532 0L423 421L301 0H221L74 441Q71 450 67 453T53 458L10 467L20 511H205V467L138 459L263 68L386 496H463L574 70L694 459L626 467L636 511H815V467L779 461Q765 459 761 455T753 441Q718 329 683 220T613 0H532Z"  />
<glyph unicode="x" horiz-adv-x="563" d="M334 0V44L402 53L277 216L151 53L220 44V0H10V44L66 55Q74 57 78 60T89 71L236 260L99 439Q93 447 89 450T75 456L30 467L40 511H228V467L161 459L279 306L400 459L333 467L343 511H528V467L481 457Q472 454 467 450T456 438L320 264L467 73Q474 65 479 61T493 55L553 44V0H334Z"  />
<glyph unicode="y" horiz-adv-x="567" d="M93 -212V-167L163 -159Q172 -158 175 -154T184 -138L248 10L72 440Q68 449 64 452T51 457L10 467L20 511H210V467L142 459L285 90L434 459L365 467L375 511H557V467L523 462Q513 460 508 457T498 445L245 -159L339 -168V-212H93Z"  />
<glyph unicode="z" horiz-adv-x="476" d="M40 0V42L352 455H131Q125 455 123 451T120 442L108 376L55 373V511H439V467L129 56H365Q371 56 373 60T376 69L388 145L441 148V0H40Z"  />
<glyph unicode="{" horiz-adv-x="274" d="M236 -146Q198 -142 170 -135T124 -113T97 -78T88 -25Q88 -4 90 20T94 70T99 121T101 169Q101 199 94 217T74 246T45 259T10 263V314Q28 314 44 317T73 331T93 359T101 408Q101 430 99 456T95 509T90 560T88 606Q88 637 97 658T124 694T170 715T236 727L246 678Q220 672 203 668T174 656T159 637T154 606Q154 565 160 511T166 406Q166 376 160 356T144 322T122 301T96 288Q109 283 121 276T144 255T160 222T166 171Q166 120 160 68T154 -25Q154 -44 158 -55T174 -74T202 -86T246 -97L236 -146Z"  />
<glyph unicode="|" horiz-adv-x="280" d="M110 -143V755H170V-143H110Z"  />
<glyph unicode="}" horiz-adv-x="274" d="M38 -146L28 -97Q54 -91 71 -87T100 -75T115 -56T120 -25Q120 16 114 68T108 171Q108 201 114 221T130 255T152 275T178 288Q165 293 153 301T130 322T114 355T108 406Q108 457 114 510T120 606Q120 625 116 636T100 655T72 667T28 678L38 727Q76 723 104 716T150 694T177 659T186 606Q186 550 180 503T173 408Q173 378 180 360T200 331T229 318T264 314V263Q237 262 214 254T180 217Q173 200 173 169Q173 117 179 65T186 -25Q186 -57 177 -78T150 -113T104 -134T38 -146Z"  />
<glyph unicode="~" horiz-adv-x="465" d="M451 397Q446 376 440 358T423 327T397 305T358 297Q331 297 300 304T239 320T180 336T130 343Q106 343 92 330T59 288L17 306Q27 327 37 344T61 374T90 394T128 401Q156 401 186 394T244 378T300 362T352 355Q377 355 387 369T407 411L451 397Z"  />
<glyph unicode="&#xA0;" horiz-adv-x="230" />
<glyph unicode="&#xA1;" horiz-adv-x="256" d="M194 464Q194 407 136 407Q78 407 78 464Q78 521 136 521Q194 521 194 464ZM173 -215H96V-53L108 326H163L173 -53V-215Z"  />
<glyph unicode="&#xA2;" horiz-adv-x="489" d="M60 278Q60 336 74 379T115 453T177 501T255 525V628H310V529Q364 528 398 518T446 502V379L399 382L388 446Q386 453 385 456T376 461Q366 464 348 467T310 471V90Q331 91 351 93T379 99Q386 101 387 104T390 113L402 179L449 182V59Q435 53 399 43T310 32V-67H255V35Q164 46 112 105T60 278ZM130 284Q130 196 163 151T255 94V467Q198 456 164 412T130 284Z"  />
<glyph unicode="&#xA3;" horiz-adv-x="548" d="M50 0L38 47Q69 72 85 97T108 149T115 210T116 288V304H32V360H116V431Q116 477 127 516T162 584T225 629T322 645Q354 645 383 640T435 619T471 577T484 505L421 496Q421 551 395 569T319 588Q284 588 259 580T217 551T192 498T184 413V360H379V304H184Q184 261 184 227T178 164T159 109T118 56H403Q411 56 414 57T419 67L435 154H485V0H50Z"  />
<glyph unicode="&#xA4;" horiz-adv-x="570" d="M513 9L420 100Q394 80 360 70T284 59Q239 59 205 70T144 102L52 9L6 56L101 151Q84 179 76 212T68 282Q68 349 103 405L9 498L59 547L149 457Q176 479 211 491T291 504Q335 504 370 493T432 460L518 546L564 499L475 409Q507 356 507 286Q507 249 498 215T468 151L563 57L513 9ZM289 119Q324 119 350 131T395 166T422 218T431 282Q431 357 395 399T286 442Q215 442 180 397T144 282Q144 248 152 218T178 166T223 132T289 119Z"  />
<glyph unicode="&#xA5;" horiz-adv-x="512" d="M295 179V72Q295 61 297 57T311 52L408 44V0H119V44L212 51Q223 52 225 56T228 71V179H93V235H228V294H93V350H195L59 554Q54 562 49 565T35 571L-10 582L0 626H196V582L122 573L263 355Q307 425 339 475T401 573L329 582L339 626H522V582L480 571Q471 569 466 565T455 552L325 350H430V294H295V235H430V179H295Z"  />
<glyph unicode="&#xA6;" horiz-adv-x="280" d="M110 -143V245H170V-143H110ZM110 410V755H170V410H110Z"  />
<glyph unicode="&#xA7;" horiz-adv-x="540" d="M85 14L136 11L148 -55Q149 -60 150 -63T159 -69Q170 -73 198 -79T259 -86Q310 -86 339 -65T368 4Q368 38 347 56T293 85T224 104T155 128T102 171T80 247Q80 290 102 324T154 379Q132 396 119 420T105 482Q105 521 120 548T160 592T218 618T287 626Q344 626 382 616T435 599V476L384 479L372 545Q371 550 370 553T361 558Q350 562 329 566T279 570Q218 570 194 545T170 485Q170 453 191 436T245 407T315 387T385 362T438 319T460 243Q460 198 436 165T383 111Q406 95 420 72T435 12Q435 -33 419 -62T378 -109T320 -134T254 -142Q227 -142 200 -138T149 -129T108 -118T85 -109V14ZM206 353Q176 338 161 311T145 257Q145 225 163 207T208 176T269 156T335 135Q362 152 377 178T393 239Q393 270 376 288T331 316T270 334T206 353Z"  />
<glyph unicode="&#xA8;" horiz-adv-x="500" d="M200 658Q200 635 187 622T150 609Q127 609 114 622T100 658Q100 681 113 694T150 707Q173 707 186 694T200 658ZM399 658Q399 635 386 622T349 609Q326 609 313 622T299 658Q299 681 312 694T349 707Q372 707 385 694T399 658Z"  />
<glyph unicode="&#xA9;" horiz-adv-x="759" d="M710 319Q710 245 686 184T618 80T513 12T379 -12Q297 -12 235 12T132 79T70 180T49 305Q49 383 75 444T146 547T251 612T381 635Q457 635 518 613T622 549T687 450T710 319ZM381 31Q446 31 498 50T586 106T641 195T661 313Q661 381 640 433T582 520T494 574T381 592Q321 592 270 573T181 517T122 427T100 306Q100 242 119 191T175 105T263 50T381 31ZM505 144Q485 132 453 126T391 120Q340 120 304 134T246 175T213 237T203 315Q203 357 215 393T251 454T310 494T394 509Q425 509 456 503T506 489V386L467 389L457 443Q456 446 455 448T448 452Q437 457 422 460T385 463Q361 463 339 455T301 429T274 383T264 313Q264 282 271 255T293 208T333 177T392 165Q410 165 424 168T448 176Q453 178 454 180T457 188L471 242H505V144Z"  />
<glyph unicode="&#xAA;" horiz-adv-x="369" d="M256 281L250 322L248 323Q224 301 196 287T129 273Q98 273 80 282T52 304T39 333T36 361Q36 409 66 431T156 459L245 466V502Q245 537 233 554T178 572Q163 572 150 571T128 566T113 551T107 523L52 529Q52 558 64 575T96 602T137 613T179 616Q214 616 237 611T275 592T296 558T303 503V333Q303 325 304 323T314 320L347 315V281H256ZM245 428L169 422Q126 418 111 406T96 367Q96 341 109 330T146 318Q176 318 202 333T245 368V428Z"  />
<glyph unicode="&#xAB;" horiz-adv-x="424" d="M153 103L65 260L154 408H220L147 272Q143 265 143 262T146 253L219 103H153ZM299 103L211 260L300 408H366L293 272Q289 265 289 262T292 253L365 103H299Z"  />
<glyph unicode="&#xAC;" horiz-adv-x="570" d="M402 199V293H98V359H471V199H402Z"  />
<glyph unicode="&#xAD;" horiz-adv-x="311" d="M20 255V329H291V255H20Z"  />
<glyph unicode="&#xAE;" horiz-adv-x="447" d="M407 480Q407 439 394 406T356 348T298 311T223 297Q178 297 144 310T86 347T52 403T40 473Q40 516 54 550T94 608T152 644T224 657Q309 657 358 609T407 480ZM368 477Q368 547 327 584T224 621Q194 621 168 611T122 583T91 537T80 474Q80 408 118 371T224 333Q291 333 329 371T368 477ZM242 384V403L260 405L234 450Q231 455 228 457T216 460H200V411Q200 406 205 405L221 403V384H143V403L159 405Q164 406 164 410V549Q164 555 156 555T143 556V575H230Q269 575 281 559T294 521Q294 482 256 468Q261 466 264 462T272 450L294 412Q296 407 302 406L320 403V384H242ZM213 488Q232 488 244 494T257 520Q257 537 247 542T220 547H200V488H213Z"  />
<glyph unicode="&#xAF;" horiz-adv-x="500" d="M98 616V673H401V616H98Z"  />
<glyph unicode="&#xB0;" horiz-adv-x="300" d="M151 609Q177 609 189 624T202 666Q202 721 151 721Q127 721 113 707T98 662Q98 637 111 623T151 609ZM250 666Q250 618 224 592T151 566Q104 566 77 591T50 662Q50 713 79 738T151 764Q194 764 222 739T250 666Z"  />
<glyph unicode="&#xB1;" horiz-adv-x="570" d="M98 0V66H471V0H98ZM250 131V288H98V354H250V508H319V354H471V288H319V131H250Z"  />
<glyph unicode="&#xB2;" horiz-adv-x="344" d="M28 350V391L153 542Q191 589 212 620T234 687Q234 716 218 732T158 748Q123 748 107 734T90 682L31 689Q31 724 43 745T74 778T117 793T163 797Q234 797 266 769T299 692Q299 646 275 608T216 529L105 396H254Q262 396 264 403L274 457H320V350H28Z"  />
<glyph unicode="&#xB3;" horiz-adv-x="346" d="M226 583Q266 574 288 547T311 474Q311 409 269 376T160 342Q115 342 78 357T15 399L53 441Q70 423 96 409T159 395Q196 395 221 413T247 476Q247 520 222 537T155 555Q145 555 134 554T110 551V600L149 604Q186 607 212 625T238 685Q238 714 222 731T162 748Q128 748 111 734T94 682L34 689Q34 723 46 744T77 777T119 793T166 797Q235 797 268 770T302 691Q302 649 281 623T226 586V583Z"  />
<glyph unicode="&#xB4;" horiz-adv-x="500" d="M178 569L146 601L301 761L353 708L178 569Z"  />
<glyph unicode="&#xB5;" horiz-adv-x="629" d="M108 511H175V175Q175 108 194 77T268 45Q295 45 321 54T370 79T413 112T448 148V511H515V72Q515 52 528 51L583 44V0H459L451 71L448 72Q431 57 410 42T366 15T315 -4T259 -12Q200 -12 173 23L170 21L175 -176H108V511Z"  />
<glyph unicode="&#xB6;" horiz-adv-x="547" d="M372 -133V589H283V-133H136V-89L204 -81Q212 -80 214 -77T216 -66V172Q122 181 66 240T10 400Q10 467 32 513T92 589T179 632T285 645H522V601L455 593Q444 591 442 588T439 574V-66Q439 -75 442 -77T455 -81L522 -89V-133H372Z"  />
<glyph unicode="&#xB7;" horiz-adv-x="176" d="M146 302Q146 245 88 245Q30 245 30 302Q30 359 88 359Q146 359 146 302Z"  />
<glyph unicode="&#xB8;" horiz-adv-x="500" d="M149 -178Q164 -181 182 -181Q220 -181 238 -166T257 -126Q257 -106 243 -93T185 -79L200 30L252 22L243 -44Q273 -50 294 -69T315 -123Q315 -141 309 -159T287 -193T248 -218T187 -228Q176 -228 165 -227T143 -224L149 -178Z"  />
<glyph unicode="&#xB9;" horiz-adv-x="247" d="M25 350V388L86 392Q93 393 94 395T96 405V724Q96 732 94 734T87 738L25 749L30 787H160V405Q160 397 161 395T170 392L230 388V350H25Z"  />
<glyph unicode="&#xBA;" horiz-adv-x="385" d="M191 273Q149 273 119 286T69 322T41 376T32 446Q32 522 72 569T197 616Q239 616 268 604T317 570T344 518T353 451Q353 370 314 322T191 273ZM193 317Q292 317 292 446Q292 510 269 540T196 570Q146 570 119 540T92 446Q92 317 193 317Z"  />
<glyph unicode="&#xBB;" horiz-adv-x="424" d="M58 103L131 244Q135 251 135 254T132 263L59 408H125L213 255L124 103H58ZM204 103L277 244Q281 251 281 254T278 263L205 408H271L359 255L270 103H204Z"  />
<glyph unicode="&#xBC;" horiz-adv-x="855" d="M75 281V319L136 323Q143 324 144 326T146 336V655Q146 663 144 665T137 669L75 680L80 718H210V336Q210 328 211 326T220 323L280 319V281H75ZM212 -12L568 724H631L276 -12H212ZM729 0H669V104H473V153L651 435H730V155H787V103H729V0ZM669 365L537 155H669V365Z"  />
<glyph unicode="&#xBD;" horiz-adv-x="855" d="M79 281V319L140 323Q147 324 148 326T150 336V655Q150 663 148 665T141 669L79 680L84 718H214V336Q214 328 215 326T224 323L284 319V281H79ZM181 -12L537 724H600L245 -12H181ZM508 0V41L633 192Q671 239 692 270T714 337Q714 366 698 382T638 398Q603 398 587 384T570 332L511 339Q511 374 523 395T554 428T597 443T643 447Q714 447 746 419T779 342Q779 296 755 258T696 179L585 46H734Q742 46 744 53L754 107H800V0H508Z"  />
<glyph unicode="&#xBE;" horiz-adv-x="855" d="M245 514Q285 505 307 478T330 405Q330 340 288 307T179 273Q134 273 97 288T34 330L72 372Q89 354 115 340T178 326Q215 326 240 344T266 407Q266 451 241 468T174 486Q164 486 153 485T129 482V531L168 535Q205 538 231 556T257 616Q257 645 241 662T181 679Q147 679 130 665T113 613L53 620Q53 654 65 675T96 708T138 724T185 728Q254 728 287 701T321 622Q321 580 300 554T245 517V514ZM241 -12L597 724H660L305 -12H241ZM760 0H700V104H504V153L682 435H761V155H818V103H760V0ZM700 365L568 155H700V365Z"  />
<glyph unicode="&#xBF;" horiz-adv-x="457" d="M430 -183Q423 -186 407 -191T369 -202T319 -211T262 -215Q214 -215 175 -206T108 -175T64 -117T48 -27Q48 27 64 66T110 133T178 176T262 200V327H329V152Q299 149 262 142T193 117T140 66T118 -21Q118 -63 129 -89T160 -131T206 -151T265 -157Q318 -157 341 -148T367 -129L379 -63L430 -60V-183ZM353 464Q353 407 295 407Q237 407 237 464Q237 521 295 521Q353 521 353 464Z"  />
<glyph unicode="&#xC0;" horiz-adv-x="695" d="M466 0V44L549 53L488 233H196L136 53L217 44V0H10V44L53 55Q62 57 68 61T77 74L298 724H390L616 72Q619 63 624 60T639 55L685 44V0H466ZM343 669L216 292H469L343 669ZM220 871L260 934L441 803L417 765L220 871Z"  />
<glyph unicode="&#xC1;" horiz-adv-x="695" d="M466 0V44L549 53L488 233H196L136 53L217 44V0H10V44L53 55Q62 57 68 61T77 74L298 724H390L616 72Q619 63 624 60T639 55L685 44V0H466ZM343 669L216 292H469L343 669ZM273 766L249 804L430 935L470 872L273 766Z"  />
<glyph unicode="&#xC2;" horiz-adv-x="695" d="M466 0V44L549 53L488 233H196L136 53L217 44V0H10V44L53 55Q62 57 68 61T77 74L298 724H390L616 72Q619 63 624 60T639 55L685 44V0H466ZM343 669L216 292H469L343 669ZM344 850L225 766L190 800L306 899H382L498 800L463 766L344 850Z"  />
<glyph unicode="&#xC3;" horiz-adv-x="695" d="M466 0V44L549 53L488 233H196L136 53L217 44V0H10V44L53 55Q62 57 68 61T77 74L298 724H390L616 72Q619 63 624 60T639 55L685 44V0H466ZM343 669L216 292H469L343 669ZM426 845Q436 842 442 848L481 887L517 860L494 828Q475 802 462 792T432 782Q426 782 419 783T403 786L266 822Q256 825 250 819L208 778L172 805L201 846Q217 869 230 877T259 885Q267 885 274 884T292 880L426 845Z"  />
<glyph unicode="&#xC4;" horiz-adv-x="695" d="M466 0V44L549 53L488 233H196L136 53L217 44V0H10V44L53 55Q62 57 68 61T77 74L298 724H390L616 72Q619 63 624 60T639 55L685 44V0H466ZM343 669L216 292H469L343 669ZM295 831Q295 808 282 795T245 782Q222 782 209 795T195 831Q195 854 208 867T245 880Q268 880 281 867T295 831ZM494 831Q494 808 481 795T444 782Q421 782 408 795T394 831Q394 854 407 867T444 880Q467 880 480 867T494 831Z"  />
<glyph unicode="&#xC5;" horiz-adv-x="695" d="M466 0V44L549 53L488 233H196L136 53L217 44V0H10V44L53 55Q62 57 68 61T77 74L298 724H390L616 72Q619 63 624 60T639 55L685 44V0H466ZM343 669L216 292H469L343 669ZM423 796Q423 758 401 737T341 715Q303 715 281 736T259 794Q259 834 282 855T341 876Q376 876 399 856T423 796ZM341 756Q377 756 377 796Q377 834 341 834Q324 834 314 824T304 794Q304 756 341 756Z"  />
<glyph unicode="&#xC6;" horiz-adv-x="999" d="M442 0V44L503 51Q515 53 518 57T521 72V328H291L136 53L207 44V0H10V44L52 55Q64 58 69 62T80 74L415 672L339 679V724H932V574L881 577L867 655Q866 660 863 664T850 668H588V384H868V328H588V56H872Q880 56 883 57T888 67L904 154H954V0H442ZM521 668H483L324 387H521V668Z"  />
<glyph unicode="&#xC7;" horiz-adv-x="684" d="M303 -178Q318 -181 336 -181Q374 -181 392 -166T411 -126Q411 -106 397 -93T339 -79L348 -10Q270 -3 214 27T123 107T72 223T55 368Q55 447 77 514T143 631T253 709T409 737Q477 737 534 723T627 684V538L576 541L559 635Q558 641 556 645T546 653Q517 664 481 671T404 678Q341 678 290 658T202 598T145 500T125 367Q125 210 198 129T397 47Q435 47 478 52T553 71Q563 75 566 88L582 177H629V40Q591 14 530 2T401 -12L397 -44Q427 -50 448 -69T469 -123Q469 -141 463 -159T441 -193T402 -218T341 -228Q330 -228 319 -227T297 -224L303 -178Z"  />
<glyph unicode="&#xC8;" horiz-adv-x="637" d="M70 0V44L133 51Q144 53 146 56T149 71V652Q149 663 147 667T133 672L70 679V724H560V574L509 577L495 655Q492 668 478 668H216V394H496V338H216V56H500Q508 56 511 57T516 67L532 154H582V0H70ZM198 871L238 934L419 803L395 765L198 871Z"  />
<glyph unicode="&#xC9;" horiz-adv-x="637" d="M70 0V44L133 51Q144 53 146 56T149 71V652Q149 663 147 667T133 672L70 679V724H560V574L509 577L495 655Q492 668 478 668H216V394H496V338H216V56H500Q508 56 511 57T516 67L532 154H582V0H70ZM251 766L227 804L408 935L448 872L251 766Z"  />
<glyph unicode="&#xCA;" horiz-adv-x="637" d="M70 0V44L133 51Q144 53 146 56T149 71V652Q149 663 147 667T133 672L70 679V724H560V574L509 577L495 655Q492 668 478 668H216V394H496V338H216V56H500Q508 56 511 57T516 67L532 154H582V0H70ZM322 850L203 766L168 800L284 899H360L476 800L441 766L322 850Z"  />
<glyph unicode="&#xCB;" horiz-adv-x="637" d="M70 0V44L133 51Q144 53 146 56T149 71V652Q149 663 147 667T133 672L70 679V724H560V574L509 577L495 655Q492 668 478 668H216V394H496V338H216V56H500Q508 56 511 57T516 67L532 154H582V0H70ZM273 831Q273 808 260 795T223 782Q200 782 187 795T173 831Q173 854 186 867T223 880Q246 880 259 867T273 831ZM472 831Q472 808 459 795T422 782Q399 782 386 795T372 831Q372 854 385 867T422 880Q445 880 458 867T472 831Z"  />
<glyph unicode="&#xCC;" horiz-adv-x="387" d="M71 0V44L144 51Q155 53 157 56T160 71V653Q160 664 158 668T144 673L71 680V724H320V680L243 672Q232 670 230 667T227 653V72Q227 60 229 57T243 52L320 44V0H71ZM72 871L112 934L293 803L269 765L72 871Z"  />
<glyph unicode="&#xCD;" horiz-adv-x="387" d="M71 0V44L144 51Q155 53 157 56T160 71V653Q160 664 158 668T144 673L71 680V724H320V680L243 672Q232 670 230 667T227 653V72Q227 60 229 57T243 52L320 44V0H71ZM125 766L101 804L282 935L322 872L125 766Z"  />
<glyph unicode="&#xCE;" horiz-adv-x="387" d="M71 0V44L144 51Q155 53 157 56T160 71V653Q160 664 158 668T144 673L71 680V724H320V680L243 672Q232 670 230 667T227 653V72Q227 60 229 57T243 52L320 44V0H71ZM196 850L77 766L42 800L158 899H234L350 800L315 766L196 850Z"  />
<glyph unicode="&#xCF;" horiz-adv-x="387" d="M71 0V44L144 51Q155 53 157 56T160 71V653Q160 664 158 668T144 673L71 680V724H320V680L243 672Q232 670 230 667T227 653V72Q227 60 229 57T243 52L320 44V0H71ZM147 831Q147 808 134 795T97 782Q74 782 61 795T47 831Q47 854 60 867T97 880Q120 880 133 867T147 831ZM346 831Q346 808 333 795T296 782Q273 782 260 795T246 831Q246 854 259 867T296 880Q319 880 332 867T346 831Z"  />
<glyph unicode="&#xD0;" horiz-adv-x="784" d="M81 0V44L144 51Q155 53 157 56T160 71V342H64V398H160V652Q160 663 158 667T144 672L81 679V724H370Q464 724 532 700T643 630T708 519T729 373Q729 290 707 221T638 103T521 27T353 0H81ZM358 59Q507 59 583 137T659 358Q659 448 639 507T580 601T488 651T364 666H227V398H437V342H227V59H358Z"  />
<glyph unicode="&#xD1;" horiz-adv-x="828" d="M600 0L216 638V72Q216 60 218 57T232 52L299 44V0H70V44L133 51Q144 53 146 56T149 71V653Q149 664 147 667T133 673L70 680V725H246L618 93V653Q618 664 616 667T602 673L539 680V724H767V680L700 672Q689 670 687 667T684 653V0H600ZM489 845Q499 842 505 848L544 887L580 860L557 828Q538 802 525 792T495 782Q489 782 482 783T466 786L329 822Q319 825 313 819L271 778L235 805L264 846Q280 869 293 877T322 885Q330 885 337 884T355 880L489 845Z"  />
<glyph unicode="&#xD2;" horiz-adv-x="783" d="M388 -12Q302 -12 240 16T137 94T77 213T57 363Q57 444 79 512T145 631T253 709T402 737Q486 737 547 709T648 633T708 519T728 378Q728 289 707 217T643 94T536 16T388 -12ZM392 47Q452 47 501 67T585 127T639 227T659 368Q659 443 641 501T589 598T507 657T400 678Q340 678 290 658T204 597T147 498T127 363Q127 286 146 227T199 128T283 68T392 47ZM276 871L316 934L497 803L473 765L276 871Z"  />
<glyph unicode="&#xD3;" horiz-adv-x="783" d="M388 -12Q302 -12 240 16T137 94T77 213T57 363Q57 444 79 512T145 631T253 709T402 737Q486 737 547 709T648 633T708 519T728 378Q728 289 707 217T643 94T536 16T388 -12ZM392 47Q452 47 501 67T585 127T639 227T659 368Q659 443 641 501T589 598T507 657T400 678Q340 678 290 658T204 597T147 498T127 363Q127 286 146 227T199 128T283 68T392 47ZM329 766L305 804L486 935L526 872L329 766Z"  />
<glyph unicode="&#xD4;" horiz-adv-x="783" d="M388 -12Q302 -12 240 16T137 94T77 213T57 363Q57 444 79 512T145 631T253 709T402 737Q486 737 547 709T648 633T708 519T728 378Q728 289 707 217T643 94T536 16T388 -12ZM392 47Q452 47 501 67T585 127T639 227T659 368Q659 443 641 501T589 598T507 657T400 678Q340 678 290 658T204 597T147 498T127 363Q127 286 146 227T199 128T283 68T392 47ZM400 850L281 766L246 800L362 899H438L554 800L519 766L400 850Z"  />
<glyph unicode="&#xD5;" horiz-adv-x="783" d="M388 -12Q302 -12 240 16T137 94T77 213T57 363Q57 444 79 512T145 631T253 709T402 737Q486 737 547 709T648 633T708 519T728 378Q728 289 707 217T643 94T536 16T388 -12ZM392 47Q452 47 501 67T585 127T639 227T659 368Q659 443 641 501T589 598T507 657T400 678Q340 678 290 658T204 597T147 498T127 363Q127 286 146 227T199 128T283 68T392 47ZM482 845Q492 842 498 848L537 887L573 860L550 828Q531 802 518 792T488 782Q482 782 475 783T459 786L322 822Q312 825 306 819L264 778L228 805L257 846Q273 869 286 877T315 885Q323 885 330 884T348 880L482 845Z"  />
<glyph unicode="&#xD6;" horiz-adv-x="783" d="M388 -12Q302 -12 240 16T137 94T77 213T57 363Q57 444 79 512T145 631T253 709T402 737Q486 737 547 709T648 633T708 519T728 378Q728 289 707 217T643 94T536 16T388 -12ZM392 47Q452 47 501 67T585 127T639 227T659 368Q659 443 641 501T589 598T507 657T400 678Q340 678 290 658T204 597T147 498T127 363Q127 286 146 227T199 128T283 68T392 47ZM351 831Q351 808 338 795T301 782Q278 782 265 795T251 831Q251 854 264 867T301 880Q324 880 337 867T351 831ZM550 831Q550 808 537 795T500 782Q477 782 464 795T450 831Q450 854 463 867T500 880Q523 880 536 867T550 831Z"  />
<glyph unicode="&#xD7;" horiz-adv-x="570" d="M284 272L177 163L129 211L237 320L129 430L177 478L284 369L392 478L440 430L332 320L440 211L392 163L284 272Z"  />
<glyph unicode="&#xD8;" horiz-adv-x="783" d="M172 -78L216 28Q134 73 96 161T57 368Q57 447 79 514T145 631T253 709T402 737Q459 737 507 723L535 789H602L565 700Q647 656 686 571T726 378Q726 289 705 217T642 94T536 16T388 -12Q356 -12 328 -8T274 3L240 -78H172ZM392 47Q452 47 500 67T584 127T638 227T657 368Q657 467 627 535T540 640L298 61Q339 47 392 47ZM127 367Q127 266 157 197T242 90L483 666Q445 678 400 678Q340 678 290 658T204 598T147 500T127 367Z"  />
<glyph unicode="&#xD9;" horiz-adv-x="789" d="M582 653Q582 664 580 668T566 673L503 680V724H732V680L665 672Q654 670 652 667T649 653V235Q649 110 583 49T389 -12Q254 -12 197 52T140 236V653Q140 664 138 668T124 673L61 680V724H290V680L223 672Q212 670 210 667T207 653V240Q207 186 219 150T256 90T315 57T395 47Q441 47 476 56T534 88T570 147T582 238V653ZM275 871L315 934L496 803L472 765L275 871Z"  />
<glyph unicode="&#xDA;" horiz-adv-x="789" d="M582 653Q582 664 580 668T566 673L503 680V724H732V680L665 672Q654 670 652 667T649 653V235Q649 110 583 49T389 -12Q254 -12 197 52T140 236V653Q140 664 138 668T124 673L61 680V724H290V680L223 672Q212 670 210 667T207 653V240Q207 186 219 150T256 90T315 57T395 47Q441 47 476 56T534 88T570 147T582 238V653ZM328 766L304 804L485 935L525 872L328 766Z"  />
<glyph unicode="&#xDB;" horiz-adv-x="789" d="M582 653Q582 664 580 668T566 673L503 680V724H732V680L665 672Q654 670 652 667T649 653V235Q649 110 583 49T389 -12Q254 -12 197 52T140 236V653Q140 664 138 668T124 673L61 680V724H290V680L223 672Q212 670 210 667T207 653V240Q207 186 219 150T256 90T315 57T395 47Q441 47 476 56T534 88T570 147T582 238V653ZM399 850L280 766L245 800L361 899H437L553 800L518 766L399 850Z"  />
<glyph unicode="&#xDC;" horiz-adv-x="789" d="M582 653Q582 664 580 668T566 673L503 680V724H732V680L665 672Q654 670 652 667T649 653V235Q649 110 583 49T389 -12Q254 -12 197 52T140 236V653Q140 664 138 668T124 673L61 680V724H290V680L223 672Q212 670 210 667T207 653V240Q207 186 219 150T256 90T315 57T395 47Q441 47 476 56T534 88T570 147T582 238V653ZM350 831Q350 808 337 795T300 782Q277 782 264 795T250 831Q250 854 263 867T300 880Q323 880 336 867T350 831ZM549 831Q549 808 536 795T499 782Q476 782 463 795T449 831Q449 854 462 867T499 880Q522 880 535 867T549 831Z"  />
<glyph unicode="&#xDD;" horiz-adv-x="596" d="M161 0V44L254 51Q265 52 267 56T270 71V284L69 652Q62 665 45 669L0 680L10 724H208V680L134 671L305 346L472 671L400 680L410 724H596V680L554 669Q546 667 540 663T529 650L337 287V72Q337 60 339 57T353 52L450 44V0H161ZM234 766L210 804L391 935L431 872L234 766Z"  />
<glyph unicode="&#xDE;" horiz-adv-x="663" d="M70 0V44L133 51Q144 53 146 56T149 71V652Q149 663 147 667T133 672L70 679V724H308V680L231 672Q220 670 218 667T215 652V603H367Q436 603 482 586T557 541T596 474T608 392Q608 330 589 287T535 217T448 178T334 165H215V72Q215 60 217 57T231 52L374 44V0H70ZM332 224Q375 224 412 230T478 253T522 303T538 390Q538 472 493 508T347 545H215V224H332Z"  />
<glyph unicode="&#xDF;" horiz-adv-x="640" d="M30 0V45L97 51Q108 52 110 56T113 71V557Q113 613 128 652T172 717T241 755T332 767Q440 767 488 719T537 590Q537 521 507 481T427 419V416Q463 408 491 393T539 354T569 294T580 209Q580 160 566 120T526 51T462 7T378 -9Q358 -9 337 -6T296 1T258 12T227 27L249 79Q278 65 309 56T373 47Q436 47 473 85T510 209Q510 298 464 340T336 383Q316 383 302 383T274 380V436L340 443Q373 446 397 459T437 491T461 535T469 586Q469 651 435 680T331 710Q293 710 265 703T217 677T189 627T180 550V0H30Z"  />
<glyph unicode="&#xE0;" horiz-adv-x="534" d="M387 0L378 67L375 68Q335 31 291 10T190 -12Q143 -12 116 2T74 36T55 80T51 121Q51 196 96 231T231 274L374 287V343Q374 374 370 397T354 435T319 457T260 464Q235 464 214 463T176 454T151 430T141 383L77 391Q77 435 95 461T141 500T201 517T261 521Q312 521 346 513T402 484T432 430T441 345V71Q441 59 443 56T457 51L509 44V0H387ZM374 234L243 222Q207 219 184 212T146 193T127 166T121 129Q121 84 142 64T203 44Q229 44 253 52T300 73T341 103T374 138V234ZM324 569L149 708L201 761L356 601L324 569Z"  />
<glyph unicode="&#xE1;" horiz-adv-x="534" d="M387 0L378 67L375 68Q335 31 291 10T190 -12Q143 -12 116 2T74 36T55 80T51 121Q51 196 96 231T231 274L374 287V343Q374 374 370 397T354 435T319 457T260 464Q235 464 214 463T176 454T151 430T141 383L77 391Q77 435 95 461T141 500T201 517T261 521Q312 521 346 513T402 484T432 430T441 345V71Q441 59 443 56T457 51L509 44V0H387ZM374 234L243 222Q207 219 184 212T146 193T127 166T121 129Q121 84 142 64T203 44Q229 44 253 52T300 73T341 103T374 138V234ZM200 569L168 601L323 761L375 708L200 569Z"  />
<glyph unicode="&#xE2;" horiz-adv-x="534" d="M387 0L378 67L375 68Q335 31 291 10T190 -12Q143 -12 116 2T74 36T55 80T51 121Q51 196 96 231T231 274L374 287V343Q374 374 370 397T354 435T319 457T260 464Q235 464 214 463T176 454T151 430T141 383L77 391Q77 435 95 461T141 500T201 517T261 521Q312 521 346 513T402 484T432 430T441 345V71Q441 59 443 56T457 51L509 44V0H387ZM374 234L243 222Q207 219 184 212T146 193T127 166T121 129Q121 84 142 64T203 44Q229 44 253 52T300 73T341 103T374 138V234ZM385 576L261 680L137 576L99 609L223 729H299L423 609L385 576Z"  />
<glyph unicode="&#xE3;" horiz-adv-x="534" d="M387 0L378 67L375 68Q335 31 291 10T190 -12Q143 -12 116 2T74 36T55 80T51 121Q51 196 96 231T231 274L374 287V343Q374 374 370 397T354 435T319 457T260 464Q235 464 214 463T176 454T151 430T141 383L77 391Q77 435 95 461T141 500T201 517T261 521Q312 521 346 513T402 484T432 430T441 345V71Q441 59 443 56T457 51L509 44V0H387ZM374 234L243 222Q207 219 184 212T146 193T127 166T121 129Q121 84 142 64T203 44Q229 44 253 52T300 73T341 103T374 138V234ZM411 637Q392 611 379 601T349 591Q343 591 336 592T320 595Q301 600 281 605T242 616T208 625T183 631Q173 634 167 628L125 587L89 614L118 655Q134 678 147 686T176 694Q184 694 191 693T209 689Q226 684 246 679T285 669T319 660T343 654Q353 651 359 657L398 696L434 669L411 637Z"  />
<glyph unicode="&#xE4;" horiz-adv-x="534" d="M387 0L378 67L375 68Q335 31 291 10T190 -12Q143 -12 116 2T74 36T55 80T51 121Q51 196 96 231T231 274L374 287V343Q374 374 370 397T354 435T319 457T260 464Q235 464 214 463T176 454T151 430T141 383L77 391Q77 435 95 461T141 500T201 517T261 521Q312 521 346 513T402 484T432 430T441 345V71Q441 59 443 56T457 51L509 44V0H387ZM374 234L243 222Q207 219 184 212T146 193T127 166T121 129Q121 84 142 64T203 44Q229 44 253 52T300 73T341 103T374 138V234ZM212 658Q212 635 199 622T162 609Q139 609 126 622T112 658Q112 681 125 694T162 707Q185 707 198 694T212 658ZM411 658Q411 635 398 622T361 609Q338 609 325 622T311 658Q311 681 324 694T361 707Q384 707 397 694T411 658Z"  />
<glyph unicode="&#xE5;" horiz-adv-x="534" d="M387 0L378 67L375 68Q335 31 291 10T190 -12Q143 -12 116 2T74 36T55 80T51 121Q51 196 96 231T231 274L374 287V343Q374 374 370 397T354 435T319 457T260 464Q235 464 214 463T176 454T151 430T141 383L77 391Q77 435 95 461T141 500T201 517T261 521Q312 521 346 513T402 484T432 430T441 345V71Q441 59 443 56T457 51L509 44V0H387ZM374 234L243 222Q207 219 184 212T146 193T127 166T121 129Q121 84 142 64T203 44Q229 44 253 52T300 73T341 103T374 138V234ZM344 645Q344 604 320 583T254 561Q213 561 189 582T165 643Q165 687 190 708T254 729Q292 729 318 709T344 645ZM254 606Q294 606 294 645Q294 683 254 683Q236 683 225 674T214 643Q214 606 254 606Z"  />
<glyph unicode="&#xE6;" horiz-adv-x="833" d="M777 30Q743 10 701 -1T605 -12Q533 -12 487 12T415 78Q358 31 306 10T189 -12Q143 -12 116 2T74 36T56 80T51 120Q51 196 96 231T231 274L374 287V343Q374 374 370 397T354 435T319 457T260 464Q235 464 214 463T176 454T151 430T141 383L77 391Q77 435 95 461T141 500T201 517T260 521Q330 521 369 503T425 440Q455 480 498 500T592 521Q636 521 673 508T736 467T778 394T793 285Q793 274 793 264T791 242H441Q442 199 451 164T481 103T533 63T610 49Q633 49 651 51T686 57T718 69T752 86L777 30ZM243 222Q207 219 183 212T146 193T127 165T121 127Q121 82 143 63T205 44Q229 44 256 51T308 71T354 100T390 134Q377 177 374 233L243 222ZM724 298Q723 344 713 375T684 426T643 454T593 462Q564 462 538 454T492 427T458 376T441 298H724Z"  />
<glyph unicode="&#xE7;" horiz-adv-x="476" d="M191 -178Q206 -181 224 -181Q262 -181 280 -166T299 -126Q299 -106 285 -93T227 -79L236 -9Q186 -2 150 19T90 75T56 153T45 250Q45 322 64 373T117 457T199 505T302 521Q356 521 393 511T444 494V371L393 374L381 440Q380 445 379 448T370 453Q359 457 338 460T294 463Q256 463 224 452T167 415T129 350T115 253Q115 145 163 97T291 48Q329 48 362 57T420 83L446 27Q420 10 378 0T289 -12L285 -44Q315 -50 336 -69T357 -123Q357 -141 351 -159T329 -193T290 -218T229 -228Q218 -228 207 -227T185 -224L191 -178Z"  />
<glyph unicode="&#xE8;" horiz-adv-x="506" d="M450 30Q416 10 374 -1T278 -12Q212 -12 167 9T95 66T57 152T45 258Q45 325 62 374T109 456T179 505T265 521Q309 521 346 508T409 467T451 394T466 285Q466 274 466 264T464 242H115Q116 199 125 164T155 103T206 63T283 49Q306 49 324 51T359 57T391 69T425 86L450 30ZM397 296Q396 342 386 374T357 425T316 453T266 462Q237 462 212 454T166 426T133 374T117 296H397ZM327 569L152 708L204 761L359 601L327 569Z"  />
<glyph unicode="&#xE9;" horiz-adv-x="506" d="M450 30Q416 10 374 -1T278 -12Q212 -12 167 9T95 66T57 152T45 258Q45 325 62 374T109 456T179 505T265 521Q309 521 346 508T409 467T451 394T466 285Q466 274 466 264T464 242H115Q116 199 125 164T155 103T206 63T283 49Q306 49 324 51T359 57T391 69T425 86L450 30ZM397 296Q396 342 386 374T357 425T316 453T266 462Q237 462 212 454T166 426T133 374T117 296H397ZM203 569L171 601L326 761L378 708L203 569Z"  />
<glyph unicode="&#xEA;" horiz-adv-x="506" d="M450 30Q416 10 374 -1T278 -12Q212 -12 167 9T95 66T57 152T45 258Q45 325 62 374T109 456T179 505T265 521Q309 521 346 508T409 467T451 394T466 285Q466 274 466 264T464 242H115Q116 199 125 164T155 103T206 63T283 49Q306 49 324 51T359 57T391 69T425 86L450 30ZM397 296Q396 342 386 374T357 425T316 453T266 462Q237 462 212 454T166 426T133 374T117 296H397ZM388 576L264 680L140 576L102 609L226 729H302L426 609L388 576Z"  />
<glyph unicode="&#xEB;" horiz-adv-x="506" d="M450 30Q416 10 374 -1T278 -12Q212 -12 167 9T95 66T57 152T45 258Q45 325 62 374T109 456T179 505T265 521Q309 521 346 508T409 467T451 394T466 285Q466 274 466 264T464 242H115Q116 199 125 164T155 103T206 63T283 49Q306 49 324 51T359 57T391 69T425 86L450 30ZM397 296Q396 342 386 374T357 425T316 453T266 462Q237 462 212 454T166 426T133 374T117 296H397ZM215 658Q215 635 202 622T165 609Q142 609 129 622T115 658Q115 681 128 694T165 707Q188 707 201 694T215 658ZM414 658Q414 635 401 622T364 609Q341 609 328 622T314 658Q314 681 327 694T364 707Q387 707 400 694T414 658Z"  />
<glyph unicode="&#xEC;" horiz-adv-x="289" d="M28 0V45L100 51Q111 53 113 56T116 71V429Q116 446 103 450L45 469L53 511H183V71Q183 59 185 56T199 51L269 44V0H28ZM194 569L19 708L71 761L226 601L194 569Z"  />
<glyph unicode="&#xED;" horiz-adv-x="289" d="M28 0V45L100 51Q111 53 113 56T116 71V429Q116 446 103 450L45 469L53 511H183V71Q183 59 185 56T199 51L269 44V0H28ZM70 569L38 601L193 761L245 708L70 569Z"  />
<glyph unicode="&#xEE;" horiz-adv-x="289" d="M28 0V45L100 51Q111 53 113 56T116 71V429Q116 446 103 450L45 469L53 511H183V71Q183 59 185 56T199 51L269 44V0H28ZM275 576L151 680L27 576L-11 609L113 729H189L313 609L275 576Z"  />
<glyph unicode="&#xEF;" horiz-adv-x="289" d="M28 0V45L100 51Q111 53 113 56T116 71V429Q116 446 103 450L45 469L53 511H183V71Q183 59 185 56T199 51L269 44V0H28ZM95 658Q95 635 82 622T45 609Q22 609 9 622T-5 658Q-5 681 8 694T45 707Q68 707 81 694T95 658ZM294 658Q294 635 281 622T244 609Q221 609 208 622T194 658Q194 681 207 694T244 707Q267 707 280 694T294 658Z"  />
<glyph unicode="&#xF0;" horiz-adv-x="550" d="M193 613L284 662Q224 701 138 711L160 762Q270 750 345 695L447 750L475 702L390 656Q450 593 477 505T504 313Q504 261 496 204T462 99T392 20T274 -12Q214 -12 171 6T99 59T58 142T45 253Q45 304 59 349T103 427T176 481T276 501Q310 501 351 490T421 455L423 456Q410 506 388 548T331 625L221 566L193 613ZM114 252Q114 214 121 177T146 110T195 62T274 43Q324 43 356 66T407 128T433 213T440 309Q440 343 437 376Q428 389 412 401T375 422T331 436T283 442Q198 442 156 390T114 252Z"  />
<glyph unicode="&#xF1;" horiz-adv-x="632" d="M391 0V45L443 51Q454 53 456 56T459 70V310Q459 388 436 424T357 460Q330 460 304 452T254 433T213 409T183 385V71Q183 59 185 56T199 51L259 44V0H48V45L100 51Q111 53 113 56T116 71V429Q116 446 103 450L45 469L53 511H166L174 449L177 448Q215 476 263 498T371 521Q415 521 444 508T492 470T518 410T526 331V71Q526 59 528 56T542 51L602 44V0H391ZM458 637Q439 611 426 601T396 591Q390 591 383 592T367 595Q348 600 328 605T289 616T255 625T230 631Q220 634 214 628L172 587L136 614L165 655Q181 678 194 686T223 694Q231 694 238 693T256 689Q273 684 293 679T332 669T366 660T390 654Q400 651 406 657L445 696L481 669L458 637Z"  />
<glyph unicode="&#xF2;" horiz-adv-x="563" d="M279 -12Q217 -12 173 8T100 63T58 148T45 257Q45 315 60 364T105 447T181 501T289 521Q351 521 394 502T465 449T505 367T518 264Q518 201 504 150T461 63T386 8T279 -12ZM282 43Q449 43 449 257Q449 360 410 411T287 462Q203 462 159 411T114 256Q114 153 156 98T282 43ZM352 569L177 708L229 761L384 601L352 569Z"  />
<glyph unicode="&#xF3;" horiz-adv-x="563" d="M279 -12Q217 -12 173 8T100 63T58 148T45 257Q45 315 60 364T105 447T181 501T289 521Q351 521 394 502T465 449T505 367T518 264Q518 201 504 150T461 63T386 8T279 -12ZM282 43Q449 43 449 257Q449 360 410 411T287 462Q203 462 159 411T114 256Q114 153 156 98T282 43ZM228 569L196 601L351 761L403 708L228 569Z"  />
<glyph unicode="&#xF4;" horiz-adv-x="563" d="M279 -12Q217 -12 173 8T100 63T58 148T45 257Q45 315 60 364T105 447T181 501T289 521Q351 521 394 502T465 449T505 367T518 264Q518 201 504 150T461 63T386 8T279 -12ZM282 43Q449 43 449 257Q449 360 410 411T287 462Q203 462 159 411T114 256Q114 153 156 98T282 43ZM413 576L289 680L165 576L127 609L251 729H327L451 609L413 576Z"  />
<glyph unicode="&#xF5;" horiz-adv-x="563" d="M279 -12Q217 -12 173 8T100 63T58 148T45 257Q45 315 60 364T105 447T181 501T289 521Q351 521 394 502T465 449T505 367T518 264Q518 201 504 150T461 63T386 8T279 -12ZM282 43Q449 43 449 257Q449 360 410 411T287 462Q203 462 159 411T114 256Q114 153 156 98T282 43ZM439 637Q420 611 407 601T377 591Q371 591 364 592T348 595Q329 600 309 605T270 616T236 625T211 631Q201 634 195 628L153 587L117 614L146 655Q162 678 175 686T204 694Q212 694 219 693T237 689Q254 684 274 679T313 669T347 660T371 654Q381 651 387 657L426 696L462 669L439 637Z"  />
<glyph unicode="&#xF6;" horiz-adv-x="563" d="M279 -12Q217 -12 173 8T100 63T58 148T45 257Q45 315 60 364T105 447T181 501T289 521Q351 521 394 502T465 449T505 367T518 264Q518 201 504 150T461 63T386 8T279 -12ZM282 43Q449 43 449 257Q449 360 410 411T287 462Q203 462 159 411T114 256Q114 153 156 98T282 43ZM240 658Q240 635 227 622T190 609Q167 609 154 622T140 658Q140 681 153 694T190 707Q213 707 226 694T240 658ZM439 658Q439 635 426 622T389 609Q366 609 353 622T339 658Q339 681 352 694T389 707Q412 707 425 694T439 658Z"  />
<glyph unicode="&#xF7;" horiz-adv-x="570" d="M336 171Q336 114 278 114Q220 114 220 171Q220 228 278 228Q336 228 336 171ZM98 288V354H471V288H98ZM336 473Q336 416 278 416Q220 416 220 473Q220 530 278 530Q336 530 336 473Z"  />
<glyph unicode="&#xF8;" horiz-adv-x="563" d="M99 -92L148 20Q94 53 70 114T45 257Q45 315 60 364T105 447T181 501T289 521Q333 521 366 511L399 584H465L422 487Q473 455 495 397T518 264Q518 201 504 150T461 63T386 8T279 -12Q259 -12 241 -10T205 -3L166 -92H99ZM114 256Q114 131 174 79L341 455Q329 458 316 460T287 462Q203 462 159 411T114 256ZM282 43Q449 43 449 257Q449 376 395 426L229 50Q251 43 282 43Z"  />
<glyph unicode="&#xF9;" horiz-adv-x="629" d="M468 0L459 73L457 74Q440 59 420 44T375 16T322 -4T260 -12Q218 -12 190 0T146 37T123 95T116 172V430Q116 442 114 447T100 454L47 469L54 511H183V190Q183 116 201 81T273 45Q302 45 328 54T378 78T421 111T456 148V431Q456 443 454 447T440 454L386 469L393 511H523V72Q523 52 536 51L591 44V0H468ZM370 569L195 708L247 761L402 601L370 569Z"  />
<glyph unicode="&#xFA;" horiz-adv-x="629" d="M468 0L459 73L457 74Q440 59 420 44T375 16T322 -4T260 -12Q218 -12 190 0T146 37T123 95T116 172V430Q116 442 114 447T100 454L47 469L54 511H183V190Q183 116 201 81T273 45Q302 45 328 54T378 78T421 111T456 148V431Q456 443 454 447T440 454L386 469L393 511H523V72Q523 52 536 51L591 44V0H468ZM263 569L231 601L386 761L438 708L263 569Z"  />
<glyph unicode="&#xFB;" horiz-adv-x="629" d="M468 0L459 73L457 74Q440 59 420 44T375 16T322 -4T260 -12Q218 -12 190 0T146 37T123 95T116 172V430Q116 442 114 447T100 454L47 469L54 511H183V190Q183 116 201 81T273 45Q302 45 328 54T378 78T421 111T456 148V431Q456 443 454 447T440 454L386 469L393 511H523V72Q523 52 536 51L591 44V0H468ZM431 576L307 680L183 576L145 609L269 729H345L469 609L431 576Z"  />
<glyph unicode="&#xFC;" horiz-adv-x="629" d="M468 0L459 73L457 74Q440 59 420 44T375 16T322 -4T260 -12Q218 -12 190 0T146 37T123 95T116 172V430Q116 442 114 447T100 454L47 469L54 511H183V190Q183 116 201 81T273 45Q302 45 328 54T378 78T421 111T456 148V431Q456 443 454 447T440 454L386 469L393 511H523V72Q523 52 536 51L591 44V0H468ZM258 658Q258 635 245 622T208 609Q185 609 172 622T158 658Q158 681 171 694T208 707Q231 707 244 694T258 658ZM457 658Q457 635 444 622T407 609Q384 609 371 622T357 658Q357 681 370 694T407 707Q430 707 443 694T457 658Z"  />
<glyph unicode="&#xFD;" horiz-adv-x="567" d="M93 -212V-167L163 -159Q172 -158 175 -154T184 -138L248 10L72 440Q68 449 64 452T51 457L10 467L20 511H210V467L142 459L285 90L434 459L365 467L375 511H557V467L523 462Q513 460 508 457T498 445L245 -159L339 -168V-212H93ZM255 569L223 601L378 761L430 708L255 569Z"  />
<glyph unicode="&#xFE;" horiz-adv-x="578" d="M43 -212V-167L85 -161Q96 -159 98 -156T101 -141V673Q101 690 88 694L30 713L38 755H168V451Q206 477 249 499T346 521Q431 521 482 463T533 276Q533 207 521 157T487 72T433 17T363 -9Q343 -12 323 -12Q278 -12 240 2T170 47L168 46V-141Q168 -153 170 -156T184 -161L274 -168V-212H43ZM168 120Q196 91 235 69T317 46Q400 46 433 105T467 268Q467 324 457 361T428 421T386 452T335 461Q310 461 285 454T238 435T198 412T168 389V120Z"  />
<glyph unicode="&#xFF;" horiz-adv-x="567" d="M93 -212V-167L163 -159Q172 -158 175 -154T184 -138L248 10L72 440Q68 449 64 452T51 457L10 467L20 511H210V467L142 459L285 90L434 459L365 467L375 511H557V467L523 462Q513 460 508 457T498 445L245 -159L339 -168V-212H93ZM234 658Q234 635 221 622T184 609Q161 609 148 622T134 658Q134 681 147 694T184 707Q207 707 220 694T234 658ZM433 658Q433 635 420 622T383 609Q360 609 347 622T333 658Q333 681 346 694T383 707Q406 707 419 694T433 658Z"  />
<glyph unicode="&#x131;" horiz-adv-x="289" d="M28 0V45L100 51Q111 53 113 56T116 71V429Q116 446 103 450L45 469L53 511H183V71Q183 59 185 56T199 51L269 44V0H28Z"  />
<glyph unicode="&#x152;" horiz-adv-x="984" d="M445 0Q401 -12 347 -12Q261 -12 205 16T116 94T70 215T57 368Q57 447 73 514T125 631T219 709T361 737Q389 737 413 734T460 724H917V574L866 577L852 655Q849 668 835 668H558Q605 621 624 550T646 394H863V338H645Q641 244 619 173T548 56H857Q865 56 868 57T873 67L889 154H939V0H445ZM351 47Q471 47 524 126T577 368Q577 519 524 598T359 678Q246 678 187 598T127 367Q127 210 179 129T351 47Z"  />
<glyph unicode="&#x153;" horiz-adv-x="908" d="M852 30Q818 10 776 -1T680 -12Q599 -12 552 18T481 100Q455 46 405 17T279 -12Q217 -12 173 8T100 63T58 148T45 257Q45 315 60 364T105 447T181 501T289 521Q365 521 412 493T485 414Q513 468 560 494T667 521Q711 521 748 508T811 467T853 394T868 285Q868 274 868 264T866 242H517Q518 199 527 164T557 103T608 63T685 49Q708 49 726 51T761 57T793 69T827 86L852 30ZM282 43Q449 43 449 257Q449 360 410 411T287 462Q203 462 159 411T114 256Q114 153 156 98T282 43ZM799 298Q798 344 788 375T759 426T718 454T668 462Q639 462 614 454T568 427T535 376T519 298H799Z"  />
<glyph unicode="&#x160;" horiz-adv-x="581" d="M449 549L432 635Q430 642 429 646T426 654Q421 661 392 668T318 676Q231 676 190 642T148 548Q148 510 164 486T206 446T266 418T334 396T402 371T462 334T505 277T521 192Q521 135 500 96T444 33T362 -1T263 -12Q228 -12 196 -8T138 1T91 13T60 25V176H109L128 91Q130 81 132 77T145 69Q157 64 189 56T272 48Q356 48 403 81T450 187Q450 227 434 253T392 296T332 324T264 345T196 369T136 404T93 459T77 541Q77 593 96 630T149 691T226 726T322 737Q385 737 431 725T500 704V544L449 549ZM343 776H267L151 875L186 909L305 825L424 909L459 875L343 776Z"  />
<glyph unicode="&#x161;" horiz-adv-x="449" d="M342 374L330 440Q329 445 328 448T319 453Q308 457 286 461T236 465Q173 465 146 440T119 380Q119 356 129 341T157 316T198 298T246 285Q275 277 304 268T356 243T393 202T408 137Q408 95 392 66T348 20T286 -4T215 -12Q186 -12 158 -9T105 0T64 11T40 21V144L91 141L103 75Q104 70 105 67T114 62Q125 58 152 51T222 44Q277 44 310 65T343 131Q343 155 333 171T306 197T267 215T221 228Q191 235 162 243T109 267T70 307T55 372Q55 413 71 441T113 487T174 513T246 521Q298 521 338 511T393 494V371L342 374ZM195 576L74 695L111 729L233 625L359 729L397 696L271 576H195Z"  />
<glyph unicode="&#x178;" horiz-adv-x="596" d="M161 0V44L254 51Q265 52 267 56T270 71V284L69 652Q62 665 45 669L0 680L10 724H208V680L134 671L305 346L472 671L400 680L410 724H596V680L554 669Q546 667 540 663T529 650L337 287V72Q337 60 339 57T353 52L450 44V0H161ZM256 831Q256 808 243 795T206 782Q183 782 170 795T156 831Q156 854 169 867T206 880Q229 880 242 867T256 831ZM455 831Q455 808 442 795T405 782Q382 782 369 795T355 831Q355 854 368 867T405 880Q428 880 441 867T455 831Z"  />
<glyph unicode="&#x17D;" horiz-adv-x="633" d="M50 0V46L483 668H151Q143 668 140 667T135 657L116 564L64 561V724H566V676L135 56H486Q494 56 497 57T502 67L521 174H573V0H50ZM349 776H273L157 875L192 909L311 825L430 909L465 875L349 776Z"  />
<glyph unicode="&#x17E;" horiz-adv-x="476" d="M40 0V42L352 455H131Q125 455 123 451T120 442L108 376L55 373V511H439V467L129 56H365Q371 56 373 60T376 69L388 145L441 148V0H40ZM210 576L89 695L126 729L248 625L374 729L412 696L286 576H210Z"  />
<glyph unicode="&#x192;" horiz-adv-x="482" d="M244 321L202 79Q195 40 184 10T155 -41T111 -72T46 -83Q12 -83 -22 -73T-73 -50L-50 0Q-43 -5 -32 -9T-7 -18T22 -25T51 -28Q84 -28 103 -9T130 54L175 311Q176 316 176 318T169 321H75L85 377H187L207 482Q214 521 226 551T257 602T306 634T376 645Q424 645 453 634T493 616L472 495L425 498L424 568Q424 573 423 576T416 582Q408 585 398 587T370 589Q345 589 328 581T300 559T283 524T272 478L255 387Q254 382 255 380T262 377H409L399 321H244Z"  />
<glyph unicode="&#x2C6;" horiz-adv-x="500" d="M374 576L250 680L126 576L88 609L212 729H288L412 609L374 576Z"  />
<glyph unicode="&#x2C7;" horiz-adv-x="500" d="M209 576L88 695L125 729L247 625L373 729L411 696L285 576H209Z"  />
<glyph unicode="&#x2DA;" horiz-adv-x="500" d="M347 684Q347 643 323 622T257 600Q216 600 192 621T168 682Q168 726 193 747T257 768Q295 768 321 748T347 684ZM257 645Q297 645 297 684Q297 722 257 722Q239 722 228 713T217 682Q217 645 257 645Z"  />
<glyph unicode="&#x2DC;" horiz-adv-x="500" d="M399 637Q380 611 367 601T337 591Q331 591 324 592T308 595Q289 600 269 605T230 616T196 625T171 631Q161 634 155 628L113 587L77 614L106 655Q122 678 135 686T164 694Q172 694 179 693T197 689Q214 684 234 679T273 669T307 660T331 654Q341 651 347 657L386 696L422 669L399 637Z"  />
<glyph unicode="&#x2013;" horiz-adv-x="499" d="M0 255V309H499V255H0Z"  />
<glyph unicode="&#x2014;" horiz-adv-x="1000" d="M0 255V309H999V255H0Z"  />
<glyph unicode="&#x2018;" horiz-adv-x="177" d="M132 559Q92 561 69 570T45 613Q45 624 49 633T58 654L111 755L147 741L118 647Q117 641 123 638L152 625L132 559Z"  />
<glyph unicode="&#x2019;" horiz-adv-x="177" d="M30 573L59 667Q60 673 54 676L25 689L45 755Q85 753 108 744T132 701Q132 690 128 681T119 660L66 559L30 573Z"  />
<glyph unicode="&#x201A;" horiz-adv-x="166" d="M39 -103L68 -9Q69 -3 63 0L34 13L54 79Q94 77 117 68T141 25Q141 5 128 -16L75 -117L39 -103Z"  />
<glyph unicode="&#x201C;" horiz-adv-x="320" d="M275 559Q235 561 212 570T188 613Q188 624 192 633T201 654L254 755L290 741L261 647Q260 641 266 638L295 625L275 559ZM132 559Q92 561 69 570T45 613Q45 624 49 633T58 654L111 755L147 741L118 647Q117 641 123 638L152 625L132 559Z"  />
<glyph unicode="&#x201D;" horiz-adv-x="320" d="M173 573L202 667Q203 673 197 676L168 689L188 755Q228 753 251 744T275 701Q275 690 271 681T262 660L209 559L173 573ZM30 573L59 667Q60 673 54 676L25 689L45 755Q85 753 108 744T132 701Q132 690 128 681T119 660L66 559L30 573Z"  />
<glyph unicode="&#x201E;" horiz-adv-x="309" d="M39 -103L68 -9Q69 -3 63 0L34 13L54 79Q94 77 117 68T141 25Q141 5 128 -16L75 -117L39 -103ZM182 -103L211 -9Q212 -3 206 0L177 13L197 79Q237 77 260 68T284 25Q284 5 271 -16L218 -117L182 -103Z"  />
<glyph unicode="&#x2020;" horiz-adv-x="389" d="M166 -83V109L153 320L178 432H211L236 320L223 108V-83H166ZM178 432L94 417H20V480H94L178 465V432ZM163 561V645H226V561L211 465H178L163 561ZM295 417L211 432V465L295 480H369V417H295Z"  />
<glyph unicode="&#x2021;" horiz-adv-x="409" d="M188 130L163 246V324L188 432H221L246 324V246L221 130H188ZM305 82L221 97V130L305 145H379V82H305ZM188 465L173 561V645H236V561L221 465H188ZM104 417H30V480H104L188 465V432L104 417ZM173 -83V1L188 97H221L236 1V-83H173ZM104 82H30V145H104L188 130V97L104 82ZM305 417L221 432V465L305 480H379V417H305Z"  />
<glyph unicode="&#x2022;" horiz-adv-x="365" d="M314 280Q314 215 280 183T182 151Q119 151 85 183T51 280Q51 345 85 377T182 409Q245 409 279 377T314 280Z"  />
<glyph unicode="&#x2026;" horiz-adv-x="549" d="M340 45Q340 -12 282 -12Q224 -12 224 45Q224 102 282 102Q340 102 340 45ZM157 45Q157 -12 99 -12Q41 -12 41 45Q41 102 99 102Q157 102 157 45ZM523 45Q523 -12 465 -12Q407 -12 407 45Q407 102 465 102Q523 102 523 45Z"  />
<glyph unicode="&#x2030;" horiz-adv-x="1059" d="M187 295Q148 295 122 308T80 342T57 392T50 453Q50 489 59 520T86 573T131 607T194 620Q231 620 257 609T299 576T323 526T331 462Q331 387 295 341T187 295ZM146 -17L523 621H588L212 -17H146ZM190 345Q214 345 229 354T254 378T266 414T270 459Q270 481 267 501T255 536T231 560T193 569Q169 569 154 559T129 532T116 495T112 456Q112 434 115 414T127 379T151 354T190 345ZM542 -12Q503 -12 477 1T435 35T412 85T405 146Q405 182 414 213T441 266T486 300T549 313Q586 313 612 302T654 269T678 219T686 155Q686 80 650 34T542 -12ZM545 38Q569 38 584 47T609 71T621 107T625 152Q625 174 622 194T610 229T586 253T548 262Q524 262 509 252T484 225T471 188T467 149Q467 127 470 107T482 72T506 47T545 38ZM865 -12Q826 -12 800 1T758 35T735 85T728 146Q728 182 737 213T764 266T809 300T872 313Q909 313 935 302T977 269T1001 219T1009 155Q1009 80 973 34T865 -12ZM868 38Q892 38 907 47T932 71T944 107T948 152Q948 174 945 194T933 229T909 253T871 262Q847 262 832 252T807 225T794 188T790 149Q790 127 793 107T805 72T829 47T868 38Z"  />
<glyph unicode="&#x2039;" horiz-adv-x="278" d="M153 103L65 260L154 408H220L147 272Q143 265 143 262T146 253L219 103H153Z"  />
<glyph unicode="&#x203A;" horiz-adv-x="278" d="M58 103L131 244Q135 251 135 254T132 263L59 408H125L213 255L124 103H58Z"  />
<glyph unicode="&#x20AC;" horiz-adv-x="520" d="M155 223Q186 46 334 46Q357 46 380 49T414 57Q422 60 424 64T428 75L440 147L488 151V17Q472 10 430 -1T334 -12Q120 -12 85 223H6L16 279H80Q79 288 79 297T79 318Q79 326 79 333T80 348H26L36 404H85Q95 466 119 511T177 586T253 630T344 645Q396 645 434 634T490 615V480L442 484L429 557Q428 563 426 567T416 574Q405 579 384 582T337 585Q267 585 218 541T152 404H373L363 348H147V327Q147 314 147 302T148 279H353L343 223H155Z"  />
<glyph unicode="&#x2122;" horiz-adv-x="823" d="M91 348V381L153 386V680H63L53 625H20V724H339V625H306L297 680H205V386L272 381V348H91ZM659 348V380L709 385V622L606 429H566L465 623V385L518 380V348H373V380L415 385V684L373 689V724H468L588 485L711 724H801V689L758 684V385L803 380V348H659Z"  />

</font>
</defs>
</svg>
