<?xml version="1.0" encoding="utf-8"?>
<!-- Generator: Adobe Illustrator 17.0.2, SVG Export Plug-In . SVG Version: 6.00 Build 0)  -->
<!DOCTYPE svg PUBLIC "-//W3C//DTD SVG 1.1//EN" "http://www.w3.org/Graphics/SVG/1.1/DTD/svg11.dtd">
<svg version="1.1" id="Layer_1" xmlns:sketch="http://www.bohemiancoding.com/sketch/ns"
	 xmlns="http://www.w3.org/2000/svg" xmlns:xlink="http://www.w3.org/1999/xlink" x="0px" y="0px" width="78.365px"
	 height="82.042px" viewBox="10.555 8.702 78.365 82.042" enable-background="new 10.555 8.702 78.365 82.042" xml:space="preserve"
	>
<title>icon-buildright</title>
<description>Created with Sketch (http://www.bohemiancoding.com/sketch)</description>
<g id="Page-1" sketch:type="MSPage">
	<path id="Fill-13" sketch:type="MSShapeGroup" fill="#74C0C5" d="M67.669,57.742h4.554v4.554h-4.554V57.742z M64.439,65.527h11.014
		V54.51H64.439V65.527z M39.485,37.236L28.558,17.953l17.423,13.803L56.89,51.052L39.485,37.236L39.485,37.236z M69.993,49.52
		c12.34,0,12.832,9.378,12.846,9.726v13.077H57.628l-0.001-13.026C57.642,58.898,58.123,49.52,69.993,49.52L69.993,49.52z
		 M23.363,49.107c0.032-0.002,0.063-0.003,0.095-0.005l3.833,7.317h-8.066L23.363,49.107L23.363,49.107z M13.785,76.3V59.65h16.651
		L13.785,76.3L13.785,76.3z M32.722,61.935v16.65H16.071L32.722,61.935L32.722,61.935z M54.398,59.246v16.308H86.07V59.201
		c-0.004-0.129-0.536-12.912-16.077-12.912c-4.763,0-8.07,1.279-10.37,3.032l-10.985-19.43l-0.403-0.472L26.921,12.535
		c0.097-1.863-1.228-3.531-3.111-3.797c-1.984-0.282-3.828,1.104-4.112,3.094c-0.225,1.581,0.612,3.054,1.958,3.739v16.156
		c-1.02,0.521-1.784,1.509-1.958,2.729c-0.256,1.801,0.859,3.467,2.545,3.978c-0.075,0.138-0.166,0.271-0.291,0.389
		c-0.859,0.809-3.846,3.511-3.525,6.013c0.199,1.559,0.884,2.617,1.771,3.303l-4.686,8.28h-4.957v25.397h25.397V56.419h-5.014
		l-4.512-8.613c0.842-0.858,1.329-2.082,1.137-3.565c-0.341-2.674-1.379-2.399-1.7-2.326c-0.303,0.079,0.26,2.437-0.781,3.325
		l-0.183-0.349l-2.837-0.046l-0.047,0.083c-0.091-0.181-0.154-0.389-0.147-0.655c0.049-2.126,2.958-2.557,3.207-5.496
		c0.02-0.243,0.025-0.459,0.026-0.666c0.94-0.539,1.64-1.477,1.807-2.633c0.226-1.602-0.64-3.096-2.022-3.77V18.026l11.942,21.077
		l0.402,0.468l18.487,14.674C54.497,56.881,54.399,59.173,54.398,59.246L54.398,59.246z M82.834,87.513h-25.66
		c-1.571,0-2.849-1.281-2.849-2.855c0-1.572,1.278-2.85,2.849-2.85h25.66c1.575,0,2.856,1.278,2.856,2.85
		C85.69,86.232,84.409,87.513,82.834,87.513L82.834,87.513z M82.834,78.576h-25.66c-3.352,0-6.08,2.729-6.08,6.082
		c0,3.356,2.728,6.086,6.08,6.086h25.66c3.357,0,6.086-2.73,6.086-6.086C88.92,81.305,86.191,78.576,82.834,78.576L82.834,78.576z"
		/>
</g>
</svg>
