<?xml version="1.0" encoding="utf-8"?>
<!-- Generator: Adobe Illustrator 17.0.2, SVG Export Plug-In . SVG Version: 6.00 Build 0)  -->
<!DOCTYPE svg PUBLIC "-//W3C//DTD SVG 1.1//EN" "http://www.w3.org/Graphics/SVG/1.1/DTD/svg11.dtd">
<svg version="1.1" id="Layer_1" xmlns:sketch="http://www.bohemiancoding.com/sketch/ns"
	 xmlns="http://www.w3.org/2000/svg" xmlns:xlink="http://www.w3.org/1999/xlink" x="0px" y="0px" width="84.863px"
	 height="72.01px" viewBox="0.791 0.753 84.863 72.01" enable-background="new 0.791 0.753 84.863 72.01" xml:space="preserve">
<title>icon-embrace-devices</title>
<description>Created with Sketch (http://www.bohemiancoding.com/sketch)</description>
<g id="Page-1" sketch:type="MSPage">
	<path id="Fill-8" sketch:type="MSShapeGroup" fill="#74C0C5" d="M4.022,16.678h15.899v8.881H4.022V16.678z M3.407,28.79h17.129
		c1.443,0,2.616-1.173,2.616-2.616V16.063c0-1.442-1.173-2.615-2.616-2.615H3.407c-1.443,0-2.616,1.173-2.616,2.615v10.111
		C0.791,27.617,1.964,28.79,3.407,28.79L3.407,28.79z M6.94,19.608c-0.835,0-1.511,0.677-1.511,1.511S6.105,22.63,6.94,22.63
		c0.834,0,1.511-0.677,1.511-1.511S7.774,19.608,6.94,19.608L6.94,19.608z M35.949,3.984h35.175v21.66H35.949V3.984z M74.355,28.875
		h4.668v-3.231h-4.668V0.753H32.718v24.891h-5.185v3.231H74.355L74.355,28.875z M71.927,59.716c0.835,0,1.511-0.677,1.511-1.511
		c0-0.834-0.676-1.511-1.511-1.511c-0.834,0-1.511,0.677-1.511,1.511C70.416,59.039,71.093,59.716,71.927,59.716L71.927,59.716z
		 M62.187,35.834h20.236v24.934H62.187V35.834z M83.038,32.603H61.572c-1.443,0-2.616,1.173-2.616,2.615v26.165
		c0,1.443,1.173,2.616,2.616,2.616h21.466c1.443,0,2.616-1.173,2.616-2.616V35.218C85.654,33.776,84.481,32.603,83.038,32.603
		L83.038,32.603z M4.2,36.013h46.439v24.709H37.07v-0.228H17.769v0.228H4.2V36.013L4.2,36.013z M20.999,63.953h12.84v5.58h-12.84
		V63.953z M0.969,63.953h16.8v5.58h-3.862v3.23h27.39v-3.23H37.07v-5.58h16.799v-31.17h-52.9V63.953L0.969,63.953z"/>
</g>
</svg>
