<?xml version="1.0" encoding="utf-8"?>
<!-- Generator: Adobe Illustrator 16.2.1, SVG Export Plug-In . SVG Version: 6.00 Build 0)  -->
<!DOCTYPE svg PUBLIC "-//W3C//DTD SVG 1.1//EN" "http://www.w3.org/Graphics/SVG/1.1/DTD/svg11.dtd">
<svg version="1.1" id="Layer_1" xmlns="http://www.w3.org/2000/svg" xmlns:xlink="http://www.w3.org/1999/xlink" x="0px" y="0px"
	 width="55px" height="55.003px" viewBox="-5.583 -5.583 55 55.003" enable-background="new -5.583 -5.583 55 55.003"
	 xml:space="preserve">
<g>
	<path fill="#A3DAE3" d="M27.366,15.515c0-1.172,0.149-1.801,1.354-1.8h4.059V9.218h-4.97c-4.308,0-5.893,2.181-5.893,5.849v2.698
		h-2.623v4.154h2.623v12.699h5.442V21.919h4.725l0.719-4.154h-5.442L27.366,15.515z"/>
	<path fill="#A3DAE3" d="M21.918-5.583c-15.189,0-27.501,12.313-27.501,27.5c0,15.188,12.313,27.503,27.501,27.503
		c15.184,0,27.499-12.314,27.499-27.503C49.417,6.73,37.102-5.583,21.918-5.583z M36.431,31.594c0,2.662-2.176,4.837-4.837,4.837
		H12.241c-2.662,0-4.839-2.175-4.839-4.837V12.242c0-2.662,2.177-4.839,4.839-4.839h19.353c2.661,0,4.837,2.177,4.837,4.839V31.594z
		"/>
</g>
</svg>
