<?xml version="1.0" encoding="utf-8"?>
<!-- Generator: Adobe Illustrator 16.2.1, SVG Export Plug-In . SVG Version: 6.00 Build 0)  -->
<!DOCTYPE svg PUBLIC "-//W3C//DTD SVG 1.1//EN" "http://www.w3.org/Graphics/SVG/1.1/DTD/svg11.dtd">
<svg version="1.1" id="Layer_1" xmlns="http://www.w3.org/2000/svg" xmlns:xlink="http://www.w3.org/1999/xlink" x="0px" y="0px"
	 width="55.002px" height="55.002px" viewBox="-5.583 -5.583 55.002 55.002" enable-background="new -5.583 -5.583 55.002 55.002"
	 xml:space="preserve">
<g>
	<path fill="#A3DAE3" d="M21.917-5.583c-15.188,0-27.5,12.312-27.5,27.5s12.312,27.502,27.5,27.502s27.502-12.314,27.502-27.502
		C49.417,6.729,37.104-5.583,21.917-5.583z M14.831,36.087l-9.11,2.025l2.024-9.109L26.47,10.275l7.087,7.086L14.831,36.087z
		 M37.102,13.819l-2.026,2.024l-7.086-7.086l2.023-2.024c0.847-0.635,1.899-1.013,3.036-1.013c2.798,0,5.061,2.265,5.061,5.062
		C38.112,11.922,37.733,12.974,37.102,13.819z"/>
	
		<rect x="10.378" y="22.202" transform="matrix(-0.7071 0.7071 -0.7071 -0.7071 51.3937 25.5861)" fill="#A3DAE3" width="20.04" height="2.47"/>
</g>
</svg>
