<?xml version="1.0" encoding="utf-8"?>
<!-- Generator: Adobe Illustrator 16.2.1, SVG Export Plug-In . SVG Version: 6.00 Build 0)  -->
<!DOCTYPE svg PUBLIC "-//W3C//DTD SVG 1.1//EN" "http://www.w3.org/Graphics/SVG/1.1/DTD/svg11.dtd">
<svg version="1.1" id="Layer_1" xmlns="http://www.w3.org/2000/svg" xmlns:xlink="http://www.w3.org/1999/xlink" x="0px" y="0px"
	 width="55px" height="55.003px" viewBox="-5.583 -5.583 55 55.003" enable-background="new -5.583 -5.583 55 55.003"
	 xml:space="preserve">
<g>
	<path fill="#A3DAE3" d="M31.319,21.704c0,3.923-2.402,7.28-5.818,8.69c-1.102,0.469-2.313,0.729-3.585,0.729
		c-1.271,0-2.481-0.26-3.584-0.729c-3.415-1.41-5.821-4.765-5.821-8.69c0-0.62,0.069-1.225,0.184-1.812H9.77v12.147
		c0,1.115,0.912,2.026,2.024,2.026h20.247c1.113,0,2.024-0.913,2.024-2.026V19.893l-2.927-0.002
		C31.253,20.48,31.319,21.083,31.319,21.704z"/>
	<path fill="#A3DAE3" d="M33.053,9.77h-2.024c-0.558,0-1.012,0.456-1.012,1.013v2.025c0,0.556,0.454,1.013,1.012,1.013h2.024
		c0.558,0,1.013-0.456,1.013-1.013v-2.026C34.065,10.226,33.61,9.77,33.053,9.77z"/>
	<path fill="#A3DAE3" d="M21.916,28.073c3.511,0,6.368-2.854,6.368-6.369c0-1.277-0.387-2.463-1.038-3.46
		c-1.168-1.693-3.115-2.806-5.328-2.806c-2.216,0-4.167,1.116-5.334,2.81c-0.649,0.998-1.034,2.18-1.034,3.456
		C15.55,25.218,18.406,28.073,21.916,28.073z"/>
	<path fill="#A3DAE3" d="M21.918-5.583c-15.189,0-27.501,12.313-27.501,27.5c0,15.188,12.313,27.503,27.501,27.503
		c15.184,0,27.499-12.314,27.499-27.503C49.417,6.73,37.102-5.583,21.918-5.583z M38.116,32.737c0,2.959-2.42,5.379-5.38,5.379
		H11.098c-2.958,0-5.378-2.42-5.378-5.379V11.098c0-2.959,2.418-5.378,5.378-5.378h21.639c2.96,0,5.38,2.418,5.38,5.378V32.737z"/>
</g>
</svg>
