<?xml version="1.0" encoding="utf-8"?>
<!-- Generator: Adobe Illustrator 16.2.1, SVG Export Plug-In . SVG Version: 6.00 Build 0)  -->
<!DOCTYPE svg PUBLIC "-//W3C//DTD SVG 1.1//EN" "http://www.w3.org/Graphics/SVG/1.1/DTD/svg11.dtd">
<svg version="1.1" id="Layer_1" xmlns="http://www.w3.org/2000/svg" xmlns:xlink="http://www.w3.org/1999/xlink" x="0px" y="0px"
	 width="55px" height="55.003px" viewBox="-5.583 -5.583 55 55.003" enable-background="new -5.583 -5.583 55 55.003"
	 xml:space="preserve">
<g>
	<path fill="#A3DAE3" d="M31.692,25.156c-1.816,0.507-8.437,2.835-8.437,2.835s-5.631-17.634-6.158-19.234
		c-0.591-1.788-3.794-0.218-6.875,1.013c-1.335,0.533-0.758,1.551-0.168,3.237c0.59,1.687,7.043,20.753,7.043,20.753
		c0.759,2.192,2.109,1.645,3.418,1.316c1.306-0.327,8.308-2.626,11.893-3.805h0.004c3.584-1.181,2.667-1.979,2.192-4.472
		C34.128,24.309,33.508,24.65,31.692,25.156z"/>
	<path fill="#A3DAE3" d="M21.918-5.583c-15.189,0-27.501,12.313-27.501,27.5c0,15.188,12.313,27.503,27.501,27.503
		c15.184,0,27.499-12.314,27.499-27.503C49.417,6.73,37.102-5.583,21.918-5.583z M38.116,32.674c0,2.993-2.449,5.441-5.441,5.441
		H11.162c-2.994,0-5.442-2.451-5.442-5.441V11.162c0-2.994,2.451-5.442,5.442-5.442h21.512c2.994,0,5.442,2.451,5.442,5.442V32.674
		L38.116,32.674z"/>
</g>
</svg>
