<?xml version="1.0" encoding="utf-8"?>
<!-- Generator: Adobe Illustrator 16.2.1, SVG Export Plug-In . SVG Version: 6.00 Build 0)  -->
<!DOCTYPE svg PUBLIC "-//W3C//DTD SVG 1.1//EN" "http://www.w3.org/Graphics/SVG/1.1/DTD/svg11.dtd">
<svg version="1.1" id="Layer_1" xmlns="http://www.w3.org/2000/svg" xmlns:xlink="http://www.w3.org/1999/xlink" x="0px" y="0px"
	 width="55px" height="55.003px" viewBox="-5.583 -5.583 55 55.003" enable-background="new -5.583 -5.583 55 55.003"
	 xml:space="preserve">
<path fill="#A3DAE3" d="M21.918-5.583c-15.189,0-27.501,12.313-27.501,27.5c0,15.188,12.313,27.503,27.501,27.503
	c15.184,0,27.499-12.314,27.499-27.503C49.417,6.73,37.102-5.583,21.918-5.583z M13.151,19.655l19.761,4.379l-18.345-8.552
	l1.71-3.672l18.342,8.553L18.566,8.042l1.781-2.322h1.841l14.907,11.436l-2.468,3.214v-0.001l-1.708,3.669l0,0l-0.877,3.952
	l-19.769-4.382L13.151,19.655z M11.794,27.993h20.247v4.049H11.794V27.993z M38.116,38.116H5.72V25.968h4.048v8.1h24.296v-8.1h4.049
	v12.147H38.116z"/>
</svg>
