<?xml version="1.0" encoding="utf-8"?>
<!-- Generator: Adobe Illustrator 17.0.0, SVG Export Plug-In . SVG Version: 6.00 Build 0)  -->
<!DOCTYPE svg PUBLIC "-//W3C//DTD SVG 1.1//EN" "http://www.w3.org/Graphics/SVG/1.1/DTD/svg11.dtd">
<svg version="1.1" id="Layer_1" xmlns:sketch="http://www.bohemiancoding.com/sketch/ns"
	 xmlns="http://www.w3.org/2000/svg" xmlns:xlink="http://www.w3.org/1999/xlink" x="0px" y="0px" width="120px" height="27px"
	 viewBox="0 0 120 27" enable-background="new 0 0 120 27" xml:space="preserve">
<title>Sparkbox Text</title>
<description>Created with Sketch (http://www.bohemiancoding.com/sketch)</description>
<g id="Page-1" sketch:type="MSPage">
	<path id="Fill-1" sketch:type="MSShapeGroup" fill="#FFFFFF" d="M2.409,27L0,24.653v-6.648h3.872v3.131
		c0.032,1.379,0.577,2.05,1.651,2.05c1.126-0.002,1.634-0.671,1.634-2.05V16.37l-7.155-4.099L0,2.282l2.225-2.278L8.451,0
		l2.443,2.486v5.869H7.233V5.761c0.032-1.3-0.52-1.979-1.63-2.015H5.594c-0.606,0-1.008,0.143-1.273,0.422
		c-0.32,0.334-0.466,0.856-0.445,1.592v3.671l7.119,4.238L11,24.507L8.56,27H2.409"/>
	<path id="Fill-2" sketch:type="MSShapeGroup" fill="#FFFFFF" d="M16.009,27L16,0.009L24.137,0l2.859,2.879L27,12.897l-2.856,2.88
		l-4.335,0.004L19.82,27H16.009L16.009,27L16.009,27L16.009,27z M20,11.997c0,0,1.738,0,1.742,0c0.488,0,0.787-0.111,0.981-0.321
		c0.199-0.21,0.293-0.533,0.275-0.955V5.202c0.018-0.374-0.069-0.667-0.256-0.864C22.535,4.114,22.193,4,21.729,4H20V11.997
		L20,11.997z"/>
	<path id="Fill-3" sketch:type="MSShapeGroup" fill="#FFFFFF" d="M37.256,27l-0.319-3.594l-2.757,0.01l-0.299,3.575L30,27
		l2.792-26.991L37.845,0L41,27H37.256L37.256,27L37.256,27L37.256,27z M34.607,19.989h2L35.521,8L34.607,19.989L34.607,19.989z"/>
	<path id="Fill-4" sketch:type="MSShapeGroup" fill="#FFFFFF" d="M53.163,27l-1.745-11.334l-1.514,0.006l0.006,11.319L46.006,27
		L46,0.009L54.083,0l2.839,2.843l0.004,9.985L55.15,14.61L57,27H53.163L53.163,27L53.163,27L53.163,27z M50,11.996
		c0,0,1.737,0,1.74,0c0.837,0,1.23-0.415,1.26-1.223V5.186C52.97,4.398,52.574,4,51.825,4H50v8V11.996z"/>
	<path id="Fill-5" sketch:type="MSShapeGroup" fill="#FFFFFF" d="M69.077,27l-3.265-11.262l0.019,11.254L62.01,27L62,0.009L65.821,0
		l0.009,12.257l3.234-12.252L72.881,0l-3.345,13.965L73,27H69.077"/>
	<path id="Fill-6" sketch:type="MSShapeGroup" fill="#FFFFFF" d="M78.01,27L78,0.009L86.125,0L89,2.913v8.741l-1.75,1.781l1.75,1.76
		v8.956L86.199,27H78.01L78.01,27L78.01,27L78.01,27z M83.764,23c0.788,0,1.206-0.485,1.236-1.445v-5.154
		C85,15.459,84.546,15,83.618,15H82v8C82,23,83.687,23,83.764,23z M82,11.989h1.523c0.551,0,0.906-0.138,1.135-0.409
		c0.256-0.301,0.369-0.778,0.336-1.42V5.436c0.012-0.452-0.087-0.802-0.292-1.042c-0.226-0.262-0.59-0.392-1.081-0.392H82V12V11.989
		z"/>
	<path id="Fill-7" sketch:type="MSShapeGroup" fill="#FFFFFF" d="M96.763,27L94,24.048V2.881l2.721-2.879h5.339L105,2.881v21.167
		L101.96,27H96.763L96.763,27L96.763,27L96.763,27z M99.48,4c-1.331,0.11-1.979,0.71-1.979,1.834v16.298
		c-0.017,0.575,0.133,1.024,0.45,1.339c0.328,0.333,0.845,0.511,1.528,0.529c1.373-0.07,2.053-0.699,2.018-1.868V5.834
		C101.499,4.622,100.703,4.11,99.48,4L99.48,4z"/>
	<path id="Fill-8" sketch:type="MSShapeGroup" fill="#FFFFFF" d="M108,0h3.861l2.38,6.999L116.237,0h3.658l-3.725,12.788L120,27
		h-3.763l-2.101-7.745L111.896,27h-3.76l4.242-14.173L108,0"/>
</g>
</svg>
